<mxfile host="Electron" modified="2023-08-10T05:33:40.961Z" agent="Mozilla/5.0 (Macintosh; Intel Mac OS X 10_15_7) AppleWebKit/537.36 (KHTML, like Gecko) draw.io/21.6.5 Chrome/114.0.5735.243 Electron/25.3.1 Safari/537.36" etag="G3UMsOHrNyz_OQbu3Gm2" version="21.6.5" type="device" pages="7">
  <diagram name="第1頁" id="Jn6FcLdUTl-QiQWzM5_B">
    <mxGraphModel dx="1026" dy="661" grid="1" gridSize="10" guides="1" tooltips="1" connect="1" arrows="1" fold="1" page="1" pageScale="1" pageWidth="3300" pageHeight="2339" math="0" shadow="0">
      <root>
        <mxCell id="0" />
        <mxCell id="1" parent="0" />
        <mxCell id="MZ58YhvfUmRXYd5lzuu6-11" value="" style="group" parent="1" vertex="1" connectable="0">
          <mxGeometry x="200" y="170" width="400" height="40" as="geometry" />
        </mxCell>
        <mxCell id="MZ58YhvfUmRXYd5lzuu6-1" value="H" style="rounded=0;whiteSpace=wrap;html=1;fontSize=17;" parent="MZ58YhvfUmRXYd5lzuu6-11" vertex="1">
          <mxGeometry width="40" height="40" as="geometry" />
        </mxCell>
        <mxCell id="MZ58YhvfUmRXYd5lzuu6-2" value="E" style="rounded=0;whiteSpace=wrap;html=1;fontSize=17;" parent="MZ58YhvfUmRXYd5lzuu6-11" vertex="1">
          <mxGeometry x="40" width="40" height="40" as="geometry" />
        </mxCell>
        <mxCell id="MZ58YhvfUmRXYd5lzuu6-3" value="L" style="rounded=0;whiteSpace=wrap;html=1;fontSize=17;" parent="MZ58YhvfUmRXYd5lzuu6-11" vertex="1">
          <mxGeometry x="80" width="40" height="40" as="geometry" />
        </mxCell>
        <mxCell id="MZ58YhvfUmRXYd5lzuu6-4" value="L" style="rounded=0;whiteSpace=wrap;html=1;fontSize=17;" parent="MZ58YhvfUmRXYd5lzuu6-11" vertex="1">
          <mxGeometry x="120" width="40" height="40" as="geometry" />
        </mxCell>
        <mxCell id="MZ58YhvfUmRXYd5lzuu6-5" value="O" style="rounded=0;whiteSpace=wrap;html=1;fontSize=17;" parent="MZ58YhvfUmRXYd5lzuu6-11" vertex="1">
          <mxGeometry x="160" width="40" height="40" as="geometry" />
        </mxCell>
        <mxCell id="MZ58YhvfUmRXYd5lzuu6-6" value="" style="rounded=0;whiteSpace=wrap;html=1;fontSize=17;" parent="MZ58YhvfUmRXYd5lzuu6-11" vertex="1">
          <mxGeometry x="200" width="40" height="40" as="geometry" />
        </mxCell>
        <mxCell id="MZ58YhvfUmRXYd5lzuu6-7" value="W" style="rounded=0;whiteSpace=wrap;html=1;fontSize=17;" parent="MZ58YhvfUmRXYd5lzuu6-11" vertex="1">
          <mxGeometry x="240" width="40" height="40" as="geometry" />
        </mxCell>
        <mxCell id="MZ58YhvfUmRXYd5lzuu6-8" value="O" style="rounded=0;whiteSpace=wrap;html=1;fontSize=17;" parent="MZ58YhvfUmRXYd5lzuu6-11" vertex="1">
          <mxGeometry x="280" width="40" height="40" as="geometry" />
        </mxCell>
        <mxCell id="MZ58YhvfUmRXYd5lzuu6-9" value="R" style="rounded=0;whiteSpace=wrap;html=1;fontSize=17;" parent="MZ58YhvfUmRXYd5lzuu6-11" vertex="1">
          <mxGeometry x="320" width="40" height="40" as="geometry" />
        </mxCell>
        <mxCell id="MZ58YhvfUmRXYd5lzuu6-10" value="D" style="rounded=0;whiteSpace=wrap;html=1;fontSize=17;" parent="MZ58YhvfUmRXYd5lzuu6-11" vertex="1">
          <mxGeometry x="360" width="40" height="40" as="geometry" />
        </mxCell>
        <mxCell id="MZ58YhvfUmRXYd5lzuu6-13" value="V" style="group;fillColor=#d80073;fontColor=#ffffff;strokeColor=#A50040;" parent="1" vertex="1" connectable="0">
          <mxGeometry x="200" y="370" width="400" height="40" as="geometry" />
        </mxCell>
        <mxCell id="MZ58YhvfUmRXYd5lzuu6-14" value="K" style="rounded=0;whiteSpace=wrap;html=1;fontSize=17;fillColor=#d80073;fontColor=#ffffff;strokeColor=#A50040;" parent="MZ58YhvfUmRXYd5lzuu6-13" vertex="1">
          <mxGeometry width="40" height="40" as="geometry" />
        </mxCell>
        <mxCell id="MZ58YhvfUmRXYd5lzuu6-15" value="F" style="rounded=0;whiteSpace=wrap;html=1;fontSize=17;fillColor=#d80073;fontColor=#ffffff;strokeColor=#A50040;" parent="MZ58YhvfUmRXYd5lzuu6-13" vertex="1">
          <mxGeometry x="40" width="40" height="40" as="geometry" />
        </mxCell>
        <mxCell id="MZ58YhvfUmRXYd5lzuu6-16" value="S" style="rounded=0;whiteSpace=wrap;html=1;fontSize=17;fillColor=#d80073;fontColor=#ffffff;strokeColor=#A50040;" parent="MZ58YhvfUmRXYd5lzuu6-13" vertex="1">
          <mxGeometry x="80" width="40" height="40" as="geometry" />
        </mxCell>
        <mxCell id="MZ58YhvfUmRXYd5lzuu6-17" value="R" style="rounded=0;whiteSpace=wrap;html=1;fontSize=17;fillColor=#d80073;fontColor=#ffffff;strokeColor=#A50040;" parent="MZ58YhvfUmRXYd5lzuu6-13" vertex="1">
          <mxGeometry x="120" width="40" height="40" as="geometry" />
        </mxCell>
        <mxCell id="MZ58YhvfUmRXYd5lzuu6-18" value="V" style="rounded=0;whiteSpace=wrap;html=1;fontSize=17;fillColor=#d80073;fontColor=#ffffff;strokeColor=#A50040;" parent="MZ58YhvfUmRXYd5lzuu6-13" vertex="1">
          <mxGeometry x="160" width="40" height="40" as="geometry" />
        </mxCell>
        <mxCell id="MZ58YhvfUmRXYd5lzuu6-19" value="C" style="rounded=0;whiteSpace=wrap;html=1;fontSize=17;fillColor=#d80073;fontColor=#ffffff;strokeColor=#A50040;" parent="MZ58YhvfUmRXYd5lzuu6-13" vertex="1">
          <mxGeometry x="200" width="40" height="40" as="geometry" />
        </mxCell>
        <mxCell id="MZ58YhvfUmRXYd5lzuu6-20" value="Z" style="rounded=0;whiteSpace=wrap;html=1;fontSize=17;fillColor=#d80073;fontColor=#ffffff;strokeColor=#A50040;" parent="MZ58YhvfUmRXYd5lzuu6-13" vertex="1">
          <mxGeometry x="240" width="40" height="40" as="geometry" />
        </mxCell>
        <mxCell id="MZ58YhvfUmRXYd5lzuu6-21" value="V" style="rounded=0;whiteSpace=wrap;html=1;fontSize=17;fillColor=#d80073;fontColor=#ffffff;strokeColor=#A50040;" parent="MZ58YhvfUmRXYd5lzuu6-13" vertex="1">
          <mxGeometry x="280" width="40" height="40" as="geometry" />
        </mxCell>
        <mxCell id="MZ58YhvfUmRXYd5lzuu6-22" value="X" style="rounded=0;whiteSpace=wrap;html=1;fontSize=17;fillColor=#d80073;fontColor=#ffffff;strokeColor=#A50040;" parent="MZ58YhvfUmRXYd5lzuu6-13" vertex="1">
          <mxGeometry x="320" width="40" height="40" as="geometry" />
        </mxCell>
        <mxCell id="MZ58YhvfUmRXYd5lzuu6-23" value="K" style="rounded=0;whiteSpace=wrap;html=1;fontSize=17;fillColor=#d80073;fontColor=#ffffff;strokeColor=#A50040;" parent="MZ58YhvfUmRXYd5lzuu6-13" vertex="1">
          <mxGeometry x="360" width="40" height="40" as="geometry" />
        </mxCell>
        <mxCell id="MZ58YhvfUmRXYd5lzuu6-24" style="edgeStyle=orthogonalEdgeStyle;rounded=0;orthogonalLoop=1;jettySize=auto;html=1;exitX=0.5;exitY=1;exitDx=0;exitDy=0;entryX=0.5;entryY=0;entryDx=0;entryDy=0;" parent="1" source="MZ58YhvfUmRXYd5lzuu6-1" target="MZ58YhvfUmRXYd5lzuu6-14" edge="1">
          <mxGeometry relative="1" as="geometry" />
        </mxCell>
        <mxCell id="MZ58YhvfUmRXYd5lzuu6-25" style="edgeStyle=orthogonalEdgeStyle;rounded=0;orthogonalLoop=1;jettySize=auto;html=1;exitX=0.5;exitY=1;exitDx=0;exitDy=0;entryX=0.5;entryY=0;entryDx=0;entryDy=0;" parent="1" source="MZ58YhvfUmRXYd5lzuu6-2" target="MZ58YhvfUmRXYd5lzuu6-15" edge="1">
          <mxGeometry relative="1" as="geometry" />
        </mxCell>
        <mxCell id="MZ58YhvfUmRXYd5lzuu6-26" style="edgeStyle=orthogonalEdgeStyle;rounded=0;orthogonalLoop=1;jettySize=auto;html=1;exitX=0.5;exitY=1;exitDx=0;exitDy=0;entryX=0.5;entryY=0;entryDx=0;entryDy=0;" parent="1" source="MZ58YhvfUmRXYd5lzuu6-3" target="MZ58YhvfUmRXYd5lzuu6-16" edge="1">
          <mxGeometry relative="1" as="geometry" />
        </mxCell>
        <mxCell id="MZ58YhvfUmRXYd5lzuu6-27" style="edgeStyle=orthogonalEdgeStyle;rounded=0;orthogonalLoop=1;jettySize=auto;html=1;exitX=0.5;exitY=1;exitDx=0;exitDy=0;entryX=0.5;entryY=0;entryDx=0;entryDy=0;" parent="1" source="MZ58YhvfUmRXYd5lzuu6-4" target="MZ58YhvfUmRXYd5lzuu6-17" edge="1">
          <mxGeometry relative="1" as="geometry" />
        </mxCell>
        <mxCell id="MZ58YhvfUmRXYd5lzuu6-28" style="edgeStyle=orthogonalEdgeStyle;rounded=0;orthogonalLoop=1;jettySize=auto;html=1;exitX=0.5;exitY=1;exitDx=0;exitDy=0;entryX=0.5;entryY=0;entryDx=0;entryDy=0;" parent="1" source="MZ58YhvfUmRXYd5lzuu6-5" target="MZ58YhvfUmRXYd5lzuu6-18" edge="1">
          <mxGeometry relative="1" as="geometry" />
        </mxCell>
        <mxCell id="MZ58YhvfUmRXYd5lzuu6-29" style="edgeStyle=orthogonalEdgeStyle;rounded=0;orthogonalLoop=1;jettySize=auto;html=1;exitX=0.5;exitY=1;exitDx=0;exitDy=0;entryX=0.5;entryY=0;entryDx=0;entryDy=0;" parent="1" source="MZ58YhvfUmRXYd5lzuu6-7" target="MZ58YhvfUmRXYd5lzuu6-20" edge="1">
          <mxGeometry relative="1" as="geometry" />
        </mxCell>
        <mxCell id="MZ58YhvfUmRXYd5lzuu6-30" style="edgeStyle=orthogonalEdgeStyle;rounded=0;orthogonalLoop=1;jettySize=auto;html=1;exitX=0.5;exitY=1;exitDx=0;exitDy=0;entryX=0.5;entryY=0;entryDx=0;entryDy=0;" parent="1" source="MZ58YhvfUmRXYd5lzuu6-8" target="MZ58YhvfUmRXYd5lzuu6-21" edge="1">
          <mxGeometry relative="1" as="geometry" />
        </mxCell>
        <mxCell id="MZ58YhvfUmRXYd5lzuu6-31" style="edgeStyle=orthogonalEdgeStyle;rounded=0;orthogonalLoop=1;jettySize=auto;html=1;exitX=0.5;exitY=1;exitDx=0;exitDy=0;entryX=0.5;entryY=0;entryDx=0;entryDy=0;" parent="1" source="MZ58YhvfUmRXYd5lzuu6-9" target="MZ58YhvfUmRXYd5lzuu6-22" edge="1">
          <mxGeometry relative="1" as="geometry" />
        </mxCell>
        <mxCell id="MZ58YhvfUmRXYd5lzuu6-33" style="edgeStyle=orthogonalEdgeStyle;rounded=0;orthogonalLoop=1;jettySize=auto;html=1;exitX=0.5;exitY=1;exitDx=0;exitDy=0;entryX=0.5;entryY=0;entryDx=0;entryDy=0;" parent="1" source="MZ58YhvfUmRXYd5lzuu6-10" target="MZ58YhvfUmRXYd5lzuu6-23" edge="1">
          <mxGeometry relative="1" as="geometry" />
        </mxCell>
        <mxCell id="MZ58YhvfUmRXYd5lzuu6-34" value="原始字串" style="text;html=1;strokeColor=none;fillColor=none;align=center;verticalAlign=middle;whiteSpace=wrap;rounded=0;fontSize=20;" parent="1" vertex="1">
          <mxGeometry x="75" y="175" width="90" height="30" as="geometry" />
        </mxCell>
        <mxCell id="MZ58YhvfUmRXYd5lzuu6-35" value="加密&lt;br style=&quot;font-size: 20px;&quot;&gt;(區塊32767)" style="text;html=1;strokeColor=none;fillColor=none;align=center;verticalAlign=middle;whiteSpace=wrap;rounded=0;fontSize=20;" parent="1" vertex="1">
          <mxGeometry x="60" y="375" width="120" height="30" as="geometry" />
        </mxCell>
        <mxCell id="MZ58YhvfUmRXYd5lzuu6-47" value="" style="group;fillColor=#1ba1e2;fontColor=#ffffff;strokeColor=#006EAF;" parent="1" vertex="1" connectable="0">
          <mxGeometry x="200" y="566" width="400" height="40" as="geometry" />
        </mxCell>
        <mxCell id="MZ58YhvfUmRXYd5lzuu6-48" value="H" style="rounded=0;whiteSpace=wrap;html=1;fontSize=17;fillColor=#1ba1e2;fontColor=#ffffff;strokeColor=#006EAF;" parent="MZ58YhvfUmRXYd5lzuu6-47" vertex="1">
          <mxGeometry width="40" height="40" as="geometry" />
        </mxCell>
        <mxCell id="MZ58YhvfUmRXYd5lzuu6-49" value="E" style="rounded=0;whiteSpace=wrap;html=1;fontSize=17;fillColor=#1ba1e2;fontColor=#ffffff;strokeColor=#006EAF;" parent="MZ58YhvfUmRXYd5lzuu6-47" vertex="1">
          <mxGeometry x="40" width="40" height="40" as="geometry" />
        </mxCell>
        <mxCell id="MZ58YhvfUmRXYd5lzuu6-50" value="L" style="rounded=0;whiteSpace=wrap;html=1;fontSize=17;fillColor=#1ba1e2;fontColor=#ffffff;strokeColor=#006EAF;" parent="MZ58YhvfUmRXYd5lzuu6-47" vertex="1">
          <mxGeometry x="80" width="40" height="40" as="geometry" />
        </mxCell>
        <mxCell id="MZ58YhvfUmRXYd5lzuu6-51" value="L" style="rounded=0;whiteSpace=wrap;html=1;fontSize=17;fillColor=#1ba1e2;fontColor=#ffffff;strokeColor=#006EAF;" parent="MZ58YhvfUmRXYd5lzuu6-47" vertex="1">
          <mxGeometry x="120" width="40" height="40" as="geometry" />
        </mxCell>
        <mxCell id="MZ58YhvfUmRXYd5lzuu6-52" value="O" style="rounded=0;whiteSpace=wrap;html=1;fontSize=17;fillColor=#1ba1e2;fontColor=#ffffff;strokeColor=#006EAF;" parent="MZ58YhvfUmRXYd5lzuu6-47" vertex="1">
          <mxGeometry x="160" width="40" height="40" as="geometry" />
        </mxCell>
        <mxCell id="MZ58YhvfUmRXYd5lzuu6-53" value="" style="rounded=0;whiteSpace=wrap;html=1;fontSize=17;fillColor=#1ba1e2;fontColor=#ffffff;strokeColor=#006EAF;" parent="MZ58YhvfUmRXYd5lzuu6-47" vertex="1">
          <mxGeometry x="200" width="40" height="40" as="geometry" />
        </mxCell>
        <mxCell id="MZ58YhvfUmRXYd5lzuu6-54" value="W" style="rounded=0;whiteSpace=wrap;html=1;fontSize=17;fillColor=#1ba1e2;fontColor=#ffffff;strokeColor=#006EAF;" parent="MZ58YhvfUmRXYd5lzuu6-47" vertex="1">
          <mxGeometry x="240" width="40" height="40" as="geometry" />
        </mxCell>
        <mxCell id="MZ58YhvfUmRXYd5lzuu6-55" value="O" style="rounded=0;whiteSpace=wrap;html=1;fontSize=17;fillColor=#1ba1e2;fontColor=#ffffff;strokeColor=#006EAF;" parent="MZ58YhvfUmRXYd5lzuu6-47" vertex="1">
          <mxGeometry x="280" width="40" height="40" as="geometry" />
        </mxCell>
        <mxCell id="MZ58YhvfUmRXYd5lzuu6-56" value="R" style="rounded=0;whiteSpace=wrap;html=1;fontSize=17;fillColor=#1ba1e2;fontColor=#ffffff;strokeColor=#006EAF;" parent="MZ58YhvfUmRXYd5lzuu6-47" vertex="1">
          <mxGeometry x="320" width="40" height="40" as="geometry" />
        </mxCell>
        <mxCell id="MZ58YhvfUmRXYd5lzuu6-57" value="D" style="rounded=0;whiteSpace=wrap;html=1;fontSize=17;fillColor=#1ba1e2;fontColor=#ffffff;strokeColor=#006EAF;" parent="MZ58YhvfUmRXYd5lzuu6-47" vertex="1">
          <mxGeometry x="360" width="40" height="40" as="geometry" />
        </mxCell>
        <mxCell id="MZ58YhvfUmRXYd5lzuu6-59" style="edgeStyle=orthogonalEdgeStyle;rounded=0;orthogonalLoop=1;jettySize=auto;html=1;exitX=0.5;exitY=1;exitDx=0;exitDy=0;" parent="1" source="MZ58YhvfUmRXYd5lzuu6-14" target="MZ58YhvfUmRXYd5lzuu6-48" edge="1">
          <mxGeometry relative="1" as="geometry" />
        </mxCell>
        <mxCell id="MZ58YhvfUmRXYd5lzuu6-60" style="edgeStyle=orthogonalEdgeStyle;rounded=0;orthogonalLoop=1;jettySize=auto;html=1;exitX=0.5;exitY=1;exitDx=0;exitDy=0;entryX=0.5;entryY=0;entryDx=0;entryDy=0;" parent="1" source="MZ58YhvfUmRXYd5lzuu6-15" target="MZ58YhvfUmRXYd5lzuu6-49" edge="1">
          <mxGeometry relative="1" as="geometry" />
        </mxCell>
        <mxCell id="MZ58YhvfUmRXYd5lzuu6-61" style="edgeStyle=orthogonalEdgeStyle;rounded=0;orthogonalLoop=1;jettySize=auto;html=1;exitX=0.5;exitY=1;exitDx=0;exitDy=0;entryX=0.5;entryY=0;entryDx=0;entryDy=0;" parent="1" source="MZ58YhvfUmRXYd5lzuu6-16" target="MZ58YhvfUmRXYd5lzuu6-50" edge="1">
          <mxGeometry relative="1" as="geometry" />
        </mxCell>
        <mxCell id="MZ58YhvfUmRXYd5lzuu6-62" style="edgeStyle=orthogonalEdgeStyle;rounded=0;orthogonalLoop=1;jettySize=auto;html=1;exitX=0.5;exitY=1;exitDx=0;exitDy=0;entryX=0.5;entryY=0;entryDx=0;entryDy=0;" parent="1" source="MZ58YhvfUmRXYd5lzuu6-17" target="MZ58YhvfUmRXYd5lzuu6-51" edge="1">
          <mxGeometry relative="1" as="geometry" />
        </mxCell>
        <mxCell id="MZ58YhvfUmRXYd5lzuu6-63" style="edgeStyle=orthogonalEdgeStyle;rounded=0;orthogonalLoop=1;jettySize=auto;html=1;exitX=0.5;exitY=1;exitDx=0;exitDy=0;entryX=0.5;entryY=0;entryDx=0;entryDy=0;" parent="1" source="MZ58YhvfUmRXYd5lzuu6-18" target="MZ58YhvfUmRXYd5lzuu6-52" edge="1">
          <mxGeometry relative="1" as="geometry" />
        </mxCell>
        <mxCell id="MZ58YhvfUmRXYd5lzuu6-64" style="edgeStyle=orthogonalEdgeStyle;rounded=0;orthogonalLoop=1;jettySize=auto;html=1;exitX=0.5;exitY=1;exitDx=0;exitDy=0;entryX=0.5;entryY=0;entryDx=0;entryDy=0;" parent="1" source="MZ58YhvfUmRXYd5lzuu6-20" target="MZ58YhvfUmRXYd5lzuu6-54" edge="1">
          <mxGeometry relative="1" as="geometry" />
        </mxCell>
        <mxCell id="MZ58YhvfUmRXYd5lzuu6-65" style="edgeStyle=orthogonalEdgeStyle;rounded=0;orthogonalLoop=1;jettySize=auto;html=1;exitX=0.5;exitY=1;exitDx=0;exitDy=0;entryX=0.5;entryY=0;entryDx=0;entryDy=0;" parent="1" source="MZ58YhvfUmRXYd5lzuu6-21" target="MZ58YhvfUmRXYd5lzuu6-55" edge="1">
          <mxGeometry relative="1" as="geometry" />
        </mxCell>
        <mxCell id="MZ58YhvfUmRXYd5lzuu6-66" style="edgeStyle=orthogonalEdgeStyle;rounded=0;orthogonalLoop=1;jettySize=auto;html=1;exitX=0.5;exitY=1;exitDx=0;exitDy=0;entryX=0.5;entryY=0;entryDx=0;entryDy=0;" parent="1" source="MZ58YhvfUmRXYd5lzuu6-22" target="MZ58YhvfUmRXYd5lzuu6-56" edge="1">
          <mxGeometry relative="1" as="geometry" />
        </mxCell>
        <mxCell id="MZ58YhvfUmRXYd5lzuu6-67" style="edgeStyle=orthogonalEdgeStyle;rounded=0;orthogonalLoop=1;jettySize=auto;html=1;exitX=0.5;exitY=1;exitDx=0;exitDy=0;entryX=0.5;entryY=0;entryDx=0;entryDy=0;" parent="1" source="MZ58YhvfUmRXYd5lzuu6-23" target="MZ58YhvfUmRXYd5lzuu6-57" edge="1">
          <mxGeometry relative="1" as="geometry" />
        </mxCell>
        <mxCell id="MZ58YhvfUmRXYd5lzuu6-68" value="解密&lt;br style=&quot;font-size: 20px;&quot;&gt;(區塊32767)" style="text;html=1;strokeColor=none;fillColor=none;align=center;verticalAlign=middle;whiteSpace=wrap;rounded=0;fontSize=20;" parent="1" vertex="1">
          <mxGeometry x="55" y="571" width="130" height="30" as="geometry" />
        </mxCell>
        <mxCell id="MZ58YhvfUmRXYd5lzuu6-83" value="3" style="group;fillColor=#e3c800;fontColor=#FFFFFF;strokeColor=#B09500;" parent="1" vertex="1" connectable="0">
          <mxGeometry x="197" y="260" width="200" height="40" as="geometry" />
        </mxCell>
        <mxCell id="MZ58YhvfUmRXYd5lzuu6-72" value="3" style="rounded=0;whiteSpace=wrap;html=1;fontSize=17;fillColor=#e3c800;fontColor=#FFFFFF;strokeColor=#B09500;" parent="MZ58YhvfUmRXYd5lzuu6-83" vertex="1">
          <mxGeometry width="40" height="40" as="geometry" />
        </mxCell>
        <mxCell id="MZ58YhvfUmRXYd5lzuu6-73" value="2" style="rounded=0;whiteSpace=wrap;html=1;fontSize=17;fillColor=#e3c800;fontColor=#FFFFFF;strokeColor=#B09500;" parent="MZ58YhvfUmRXYd5lzuu6-83" vertex="1">
          <mxGeometry x="40" width="40" height="40" as="geometry" />
        </mxCell>
        <mxCell id="MZ58YhvfUmRXYd5lzuu6-74" value="7" style="rounded=0;whiteSpace=wrap;html=1;fontSize=17;fillColor=#e3c800;fontColor=#FFFFFF;strokeColor=#B09500;" parent="MZ58YhvfUmRXYd5lzuu6-83" vertex="1">
          <mxGeometry x="80" width="40" height="40" as="geometry" />
        </mxCell>
        <mxCell id="MZ58YhvfUmRXYd5lzuu6-75" value="6" style="rounded=0;whiteSpace=wrap;html=1;fontSize=17;fillColor=#e3c800;fontColor=#FFFFFF;strokeColor=#B09500;" parent="MZ58YhvfUmRXYd5lzuu6-83" vertex="1">
          <mxGeometry x="120" width="40" height="40" as="geometry" />
        </mxCell>
        <mxCell id="MZ58YhvfUmRXYd5lzuu6-76" value="7" style="rounded=0;whiteSpace=wrap;html=1;fontSize=17;fillColor=#e3c800;fontColor=#FFFFFF;strokeColor=#B09500;" parent="MZ58YhvfUmRXYd5lzuu6-83" vertex="1">
          <mxGeometry x="160" width="40" height="40" as="geometry" />
        </mxCell>
        <mxCell id="MZ58YhvfUmRXYd5lzuu6-84" value="3" style="group;fillColor=#e3c800;fontColor=#FFFFFF;strokeColor=#B09500;" parent="1" vertex="1" connectable="0">
          <mxGeometry x="410" y="260" width="200" height="40" as="geometry" />
        </mxCell>
        <mxCell id="MZ58YhvfUmRXYd5lzuu6-85" value="3" style="rounded=0;whiteSpace=wrap;html=1;fontSize=17;fillColor=#e3c800;fontColor=#FFFFFF;strokeColor=#B09500;" parent="MZ58YhvfUmRXYd5lzuu6-84" vertex="1">
          <mxGeometry width="40" height="40" as="geometry" />
        </mxCell>
        <mxCell id="MZ58YhvfUmRXYd5lzuu6-86" value="2" style="rounded=0;whiteSpace=wrap;html=1;fontSize=17;fillColor=#e3c800;fontColor=#FFFFFF;strokeColor=#B09500;" parent="MZ58YhvfUmRXYd5lzuu6-84" vertex="1">
          <mxGeometry x="40" width="40" height="40" as="geometry" />
        </mxCell>
        <mxCell id="MZ58YhvfUmRXYd5lzuu6-87" value="7" style="rounded=0;whiteSpace=wrap;html=1;fontSize=17;fillColor=#e3c800;fontColor=#FFFFFF;strokeColor=#B09500;" parent="MZ58YhvfUmRXYd5lzuu6-84" vertex="1">
          <mxGeometry x="80" width="40" height="40" as="geometry" />
        </mxCell>
        <mxCell id="MZ58YhvfUmRXYd5lzuu6-88" value="6" style="rounded=0;whiteSpace=wrap;html=1;fontSize=17;fillColor=#e3c800;fontColor=#FFFFFF;strokeColor=#B09500;" parent="MZ58YhvfUmRXYd5lzuu6-84" vertex="1">
          <mxGeometry x="120" width="40" height="40" as="geometry" />
        </mxCell>
        <mxCell id="MZ58YhvfUmRXYd5lzuu6-89" value="7" style="rounded=0;whiteSpace=wrap;html=1;fontSize=17;fillColor=#e3c800;fontColor=#FFFFFF;strokeColor=#B09500;" parent="MZ58YhvfUmRXYd5lzuu6-84" vertex="1">
          <mxGeometry x="160" width="40" height="40" as="geometry" />
        </mxCell>
        <mxCell id="MZ58YhvfUmRXYd5lzuu6-91" value="3" style="group;fillColor=#e3c800;fontColor=#FFFFFF;strokeColor=#B09500;" parent="1" vertex="1" connectable="0">
          <mxGeometry x="197" y="110" width="200" height="40" as="geometry" />
        </mxCell>
        <mxCell id="MZ58YhvfUmRXYd5lzuu6-92" value="3" style="rounded=0;whiteSpace=wrap;html=1;fontSize=17;fillColor=#e3c800;fontColor=#FFFFFF;strokeColor=#B09500;" parent="MZ58YhvfUmRXYd5lzuu6-91" vertex="1">
          <mxGeometry width="40" height="40" as="geometry" />
        </mxCell>
        <mxCell id="MZ58YhvfUmRXYd5lzuu6-93" value="2" style="rounded=0;whiteSpace=wrap;html=1;fontSize=17;fillColor=#e3c800;fontColor=#FFFFFF;strokeColor=#B09500;" parent="MZ58YhvfUmRXYd5lzuu6-91" vertex="1">
          <mxGeometry x="40" width="40" height="40" as="geometry" />
        </mxCell>
        <mxCell id="MZ58YhvfUmRXYd5lzuu6-94" value="7" style="rounded=0;whiteSpace=wrap;html=1;fontSize=17;fillColor=#e3c800;fontColor=#FFFFFF;strokeColor=#B09500;" parent="MZ58YhvfUmRXYd5lzuu6-91" vertex="1">
          <mxGeometry x="80" width="40" height="40" as="geometry" />
        </mxCell>
        <mxCell id="MZ58YhvfUmRXYd5lzuu6-95" value="6" style="rounded=0;whiteSpace=wrap;html=1;fontSize=17;fillColor=#e3c800;fontColor=#FFFFFF;strokeColor=#B09500;" parent="MZ58YhvfUmRXYd5lzuu6-91" vertex="1">
          <mxGeometry x="120" width="40" height="40" as="geometry" />
        </mxCell>
        <mxCell id="MZ58YhvfUmRXYd5lzuu6-96" value="7" style="rounded=0;whiteSpace=wrap;html=1;fontSize=17;fillColor=#e3c800;fontColor=#FFFFFF;strokeColor=#B09500;" parent="MZ58YhvfUmRXYd5lzuu6-91" vertex="1">
          <mxGeometry x="160" width="40" height="40" as="geometry" />
        </mxCell>
        <mxCell id="MZ58YhvfUmRXYd5lzuu6-99" value="加密區塊&lt;br&gt;(自定義)" style="text;html=1;strokeColor=none;fillColor=none;align=center;verticalAlign=middle;whiteSpace=wrap;rounded=0;fontSize=20;" parent="1" vertex="1">
          <mxGeometry x="75" y="115" width="90" height="30" as="geometry" />
        </mxCell>
        <mxCell id="MZ58YhvfUmRXYd5lzuu6-100" value="3" style="group;fillColor=#e3c800;fontColor=#FFFFFF;strokeColor=#B09500;" parent="1" vertex="1" connectable="0">
          <mxGeometry x="200" y="470" width="200" height="40" as="geometry" />
        </mxCell>
        <mxCell id="MZ58YhvfUmRXYd5lzuu6-101" value="3" style="rounded=0;whiteSpace=wrap;html=1;fontSize=17;fillColor=#e3c800;fontColor=#FFFFFF;strokeColor=#B09500;" parent="MZ58YhvfUmRXYd5lzuu6-100" vertex="1">
          <mxGeometry width="40" height="40" as="geometry" />
        </mxCell>
        <mxCell id="MZ58YhvfUmRXYd5lzuu6-102" value="2" style="rounded=0;whiteSpace=wrap;html=1;fontSize=17;fillColor=#e3c800;fontColor=#FFFFFF;strokeColor=#B09500;" parent="MZ58YhvfUmRXYd5lzuu6-100" vertex="1">
          <mxGeometry x="40" width="40" height="40" as="geometry" />
        </mxCell>
        <mxCell id="MZ58YhvfUmRXYd5lzuu6-103" value="7" style="rounded=0;whiteSpace=wrap;html=1;fontSize=17;fillColor=#e3c800;fontColor=#FFFFFF;strokeColor=#B09500;" parent="MZ58YhvfUmRXYd5lzuu6-100" vertex="1">
          <mxGeometry x="80" width="40" height="40" as="geometry" />
        </mxCell>
        <mxCell id="MZ58YhvfUmRXYd5lzuu6-104" value="6" style="rounded=0;whiteSpace=wrap;html=1;fontSize=17;fillColor=#e3c800;fontColor=#FFFFFF;strokeColor=#B09500;" parent="MZ58YhvfUmRXYd5lzuu6-100" vertex="1">
          <mxGeometry x="120" width="40" height="40" as="geometry" />
        </mxCell>
        <mxCell id="MZ58YhvfUmRXYd5lzuu6-105" value="7" style="rounded=0;whiteSpace=wrap;html=1;fontSize=17;fillColor=#e3c800;fontColor=#FFFFFF;strokeColor=#B09500;" parent="MZ58YhvfUmRXYd5lzuu6-100" vertex="1">
          <mxGeometry x="160" width="40" height="40" as="geometry" />
        </mxCell>
        <mxCell id="MZ58YhvfUmRXYd5lzuu6-106" value="3" style="group;fillColor=#e3c800;fontColor=#FFFFFF;strokeColor=#B09500;" parent="1" vertex="1" connectable="0">
          <mxGeometry x="410" y="470" width="200" height="40" as="geometry" />
        </mxCell>
        <mxCell id="MZ58YhvfUmRXYd5lzuu6-107" value="3" style="rounded=0;whiteSpace=wrap;html=1;fontSize=17;fillColor=#e3c800;fontColor=#FFFFFF;strokeColor=#B09500;" parent="MZ58YhvfUmRXYd5lzuu6-106" vertex="1">
          <mxGeometry width="40" height="40" as="geometry" />
        </mxCell>
        <mxCell id="MZ58YhvfUmRXYd5lzuu6-108" value="2" style="rounded=0;whiteSpace=wrap;html=1;fontSize=17;fillColor=#e3c800;fontColor=#FFFFFF;strokeColor=#B09500;" parent="MZ58YhvfUmRXYd5lzuu6-106" vertex="1">
          <mxGeometry x="40" width="40" height="40" as="geometry" />
        </mxCell>
        <mxCell id="MZ58YhvfUmRXYd5lzuu6-109" value="7" style="rounded=0;whiteSpace=wrap;html=1;fontSize=17;fillColor=#e3c800;fontColor=#FFFFFF;strokeColor=#B09500;" parent="MZ58YhvfUmRXYd5lzuu6-106" vertex="1">
          <mxGeometry x="80" width="40" height="40" as="geometry" />
        </mxCell>
        <mxCell id="MZ58YhvfUmRXYd5lzuu6-110" value="6" style="rounded=0;whiteSpace=wrap;html=1;fontSize=17;fillColor=#e3c800;fontColor=#FFFFFF;strokeColor=#B09500;" parent="MZ58YhvfUmRXYd5lzuu6-106" vertex="1">
          <mxGeometry x="120" width="40" height="40" as="geometry" />
        </mxCell>
        <mxCell id="MZ58YhvfUmRXYd5lzuu6-111" value="7" style="rounded=0;whiteSpace=wrap;html=1;fontSize=17;fillColor=#e3c800;fontColor=#FFFFFF;strokeColor=#B09500;" parent="MZ58YhvfUmRXYd5lzuu6-106" vertex="1">
          <mxGeometry x="160" width="40" height="40" as="geometry" />
        </mxCell>
      </root>
    </mxGraphModel>
  </diagram>
  <diagram id="8I41kWLoSYxsXLfg211-" name="第2頁">
    <mxGraphModel dx="1026" dy="662" grid="1" gridSize="10" guides="1" tooltips="1" connect="1" arrows="1" fold="1" page="1" pageScale="1" pageWidth="3300" pageHeight="2339" math="0" shadow="0">
      <root>
        <mxCell id="0" />
        <mxCell id="1" parent="0" />
        <mxCell id="N6UgiFM23j_v9HVYKGlM-1" value="" style="group" parent="1" vertex="1" connectable="0">
          <mxGeometry x="200" y="680" width="400" height="40" as="geometry" />
        </mxCell>
        <mxCell id="N6UgiFM23j_v9HVYKGlM-2" value="1" style="rounded=0;whiteSpace=wrap;html=1;fontSize=17;" parent="N6UgiFM23j_v9HVYKGlM-1" vertex="1">
          <mxGeometry width="40" height="40" as="geometry" />
        </mxCell>
        <mxCell id="N6UgiFM23j_v9HVYKGlM-3" value="1" style="rounded=0;whiteSpace=wrap;html=1;fontSize=17;" parent="N6UgiFM23j_v9HVYKGlM-1" vertex="1">
          <mxGeometry x="40" width="40" height="40" as="geometry" />
        </mxCell>
        <mxCell id="N6UgiFM23j_v9HVYKGlM-4" value="1" style="rounded=0;whiteSpace=wrap;html=1;fontSize=17;" parent="N6UgiFM23j_v9HVYKGlM-1" vertex="1">
          <mxGeometry x="80" width="40" height="40" as="geometry" />
        </mxCell>
        <mxCell id="N6UgiFM23j_v9HVYKGlM-5" value="0" style="rounded=0;whiteSpace=wrap;html=1;fontSize=17;" parent="N6UgiFM23j_v9HVYKGlM-1" vertex="1">
          <mxGeometry x="120" width="40" height="40" as="geometry" />
        </mxCell>
        <mxCell id="N6UgiFM23j_v9HVYKGlM-6" value="0" style="rounded=0;whiteSpace=wrap;html=1;fontSize=17;" parent="N6UgiFM23j_v9HVYKGlM-1" vertex="1">
          <mxGeometry x="160" width="40" height="40" as="geometry" />
        </mxCell>
        <mxCell id="N6UgiFM23j_v9HVYKGlM-7" value="1" style="rounded=0;whiteSpace=wrap;html=1;fontSize=17;" parent="N6UgiFM23j_v9HVYKGlM-1" vertex="1">
          <mxGeometry x="200" width="40" height="40" as="geometry" />
        </mxCell>
        <mxCell id="N6UgiFM23j_v9HVYKGlM-8" value="0" style="rounded=0;whiteSpace=wrap;html=1;fontSize=17;" parent="N6UgiFM23j_v9HVYKGlM-1" vertex="1">
          <mxGeometry x="240" width="40" height="40" as="geometry" />
        </mxCell>
        <mxCell id="N6UgiFM23j_v9HVYKGlM-9" value="1" style="rounded=0;whiteSpace=wrap;html=1;fontSize=17;" parent="N6UgiFM23j_v9HVYKGlM-1" vertex="1">
          <mxGeometry x="280" width="40" height="40" as="geometry" />
        </mxCell>
        <mxCell id="N6UgiFM23j_v9HVYKGlM-10" value="0" style="rounded=0;whiteSpace=wrap;html=1;fontSize=17;" parent="N6UgiFM23j_v9HVYKGlM-1" vertex="1">
          <mxGeometry x="320" width="40" height="40" as="geometry" />
        </mxCell>
        <mxCell id="N6UgiFM23j_v9HVYKGlM-11" value="1" style="rounded=0;whiteSpace=wrap;html=1;fontSize=17;" parent="N6UgiFM23j_v9HVYKGlM-1" vertex="1">
          <mxGeometry x="360" width="40" height="40" as="geometry" />
        </mxCell>
        <mxCell id="N6UgiFM23j_v9HVYKGlM-12" value="" style="group;fillColor=#d80073;fontColor=#ffffff;strokeColor=#A50040;" parent="1" vertex="1" connectable="0">
          <mxGeometry x="200" y="880" width="400" height="40" as="geometry" />
        </mxCell>
        <mxCell id="N6UgiFM23j_v9HVYKGlM-13" value="1" style="rounded=0;whiteSpace=wrap;html=1;fontSize=17;fillColor=#d80073;fontColor=#ffffff;strokeColor=#A50040;" parent="N6UgiFM23j_v9HVYKGlM-12" vertex="1">
          <mxGeometry width="40" height="40" as="geometry" />
        </mxCell>
        <mxCell id="N6UgiFM23j_v9HVYKGlM-14" value="0" style="rounded=0;whiteSpace=wrap;html=1;fontSize=17;fillColor=#d80073;fontColor=#ffffff;strokeColor=#A50040;" parent="N6UgiFM23j_v9HVYKGlM-12" vertex="1">
          <mxGeometry x="40" width="40" height="40" as="geometry" />
        </mxCell>
        <mxCell id="N6UgiFM23j_v9HVYKGlM-15" value="1" style="rounded=0;whiteSpace=wrap;html=1;fontSize=17;fillColor=#d80073;fontColor=#ffffff;strokeColor=#A50040;" parent="N6UgiFM23j_v9HVYKGlM-12" vertex="1">
          <mxGeometry x="80" width="40" height="40" as="geometry" />
        </mxCell>
        <mxCell id="N6UgiFM23j_v9HVYKGlM-16" value="1" style="rounded=0;whiteSpace=wrap;html=1;fontSize=17;fillColor=#d80073;fontColor=#ffffff;strokeColor=#A50040;" parent="N6UgiFM23j_v9HVYKGlM-12" vertex="1">
          <mxGeometry x="120" width="40" height="40" as="geometry" />
        </mxCell>
        <mxCell id="N6UgiFM23j_v9HVYKGlM-17" value="0" style="rounded=0;whiteSpace=wrap;html=1;fontSize=17;fillColor=#d80073;fontColor=#ffffff;strokeColor=#A50040;" parent="N6UgiFM23j_v9HVYKGlM-12" vertex="1">
          <mxGeometry x="160" width="40" height="40" as="geometry" />
        </mxCell>
        <mxCell id="N6UgiFM23j_v9HVYKGlM-18" value="0" style="rounded=0;whiteSpace=wrap;html=1;fontSize=17;fillColor=#d80073;fontColor=#ffffff;strokeColor=#A50040;" parent="N6UgiFM23j_v9HVYKGlM-12" vertex="1">
          <mxGeometry x="200" width="40" height="40" as="geometry" />
        </mxCell>
        <mxCell id="N6UgiFM23j_v9HVYKGlM-19" value="0" style="rounded=0;whiteSpace=wrap;html=1;fontSize=17;fillColor=#d80073;fontColor=#ffffff;strokeColor=#A50040;" parent="N6UgiFM23j_v9HVYKGlM-12" vertex="1">
          <mxGeometry x="240" width="40" height="40" as="geometry" />
        </mxCell>
        <mxCell id="N6UgiFM23j_v9HVYKGlM-20" value="0" style="rounded=0;whiteSpace=wrap;html=1;fontSize=17;fillColor=#d80073;fontColor=#ffffff;strokeColor=#A50040;" parent="N6UgiFM23j_v9HVYKGlM-12" vertex="1">
          <mxGeometry x="280" width="40" height="40" as="geometry" />
        </mxCell>
        <mxCell id="N6UgiFM23j_v9HVYKGlM-21" value="0" style="rounded=0;whiteSpace=wrap;html=1;fontSize=17;fillColor=#d80073;fontColor=#ffffff;strokeColor=#A50040;" parent="N6UgiFM23j_v9HVYKGlM-12" vertex="1">
          <mxGeometry x="320" width="40" height="40" as="geometry" />
        </mxCell>
        <mxCell id="N6UgiFM23j_v9HVYKGlM-22" value="0" style="rounded=0;whiteSpace=wrap;html=1;fontSize=17;fillColor=#d80073;fontColor=#ffffff;strokeColor=#A50040;" parent="N6UgiFM23j_v9HVYKGlM-12" vertex="1">
          <mxGeometry x="360" width="40" height="40" as="geometry" />
        </mxCell>
        <mxCell id="N6UgiFM23j_v9HVYKGlM-23" value="" style="group;fillColor=#1ba1e2;fontColor=#ffffff;strokeColor=#006EAF;" parent="1" vertex="1" connectable="0">
          <mxGeometry x="200" y="1080" width="400" height="40" as="geometry" />
        </mxCell>
        <mxCell id="N6UgiFM23j_v9HVYKGlM-24" value="1" style="rounded=0;whiteSpace=wrap;html=1;fontSize=17;fillColor=#1ba1e2;fontColor=#ffffff;strokeColor=#006EAF;" parent="N6UgiFM23j_v9HVYKGlM-23" vertex="1">
          <mxGeometry width="40" height="40" as="geometry" />
        </mxCell>
        <mxCell id="N6UgiFM23j_v9HVYKGlM-25" value="1" style="rounded=0;whiteSpace=wrap;html=1;fontSize=17;fillColor=#1ba1e2;fontColor=#ffffff;strokeColor=#006EAF;" parent="N6UgiFM23j_v9HVYKGlM-23" vertex="1">
          <mxGeometry x="40" width="40" height="40" as="geometry" />
        </mxCell>
        <mxCell id="N6UgiFM23j_v9HVYKGlM-26" value="1" style="rounded=0;whiteSpace=wrap;html=1;fontSize=17;fillColor=#1ba1e2;fontColor=#ffffff;strokeColor=#006EAF;" parent="N6UgiFM23j_v9HVYKGlM-23" vertex="1">
          <mxGeometry x="80" width="40" height="40" as="geometry" />
        </mxCell>
        <mxCell id="N6UgiFM23j_v9HVYKGlM-27" value="0" style="rounded=0;whiteSpace=wrap;html=1;fontSize=17;fillColor=#1ba1e2;fontColor=#ffffff;strokeColor=#006EAF;" parent="N6UgiFM23j_v9HVYKGlM-23" vertex="1">
          <mxGeometry x="120" width="40" height="40" as="geometry" />
        </mxCell>
        <mxCell id="N6UgiFM23j_v9HVYKGlM-28" value="0" style="rounded=0;whiteSpace=wrap;html=1;fontSize=17;fillColor=#1ba1e2;fontColor=#ffffff;strokeColor=#006EAF;" parent="N6UgiFM23j_v9HVYKGlM-23" vertex="1">
          <mxGeometry x="160" width="40" height="40" as="geometry" />
        </mxCell>
        <mxCell id="N6UgiFM23j_v9HVYKGlM-29" value="1" style="rounded=0;whiteSpace=wrap;html=1;fontSize=17;fillColor=#1ba1e2;fontColor=#ffffff;strokeColor=#006EAF;" parent="N6UgiFM23j_v9HVYKGlM-23" vertex="1">
          <mxGeometry x="200" width="40" height="40" as="geometry" />
        </mxCell>
        <mxCell id="N6UgiFM23j_v9HVYKGlM-30" value="0" style="rounded=0;whiteSpace=wrap;html=1;fontSize=17;fillColor=#1ba1e2;fontColor=#ffffff;strokeColor=#006EAF;" parent="N6UgiFM23j_v9HVYKGlM-23" vertex="1">
          <mxGeometry x="240" width="40" height="40" as="geometry" />
        </mxCell>
        <mxCell id="N6UgiFM23j_v9HVYKGlM-31" value="1" style="rounded=0;whiteSpace=wrap;html=1;fontSize=17;fillColor=#1ba1e2;fontColor=#ffffff;strokeColor=#006EAF;" parent="N6UgiFM23j_v9HVYKGlM-23" vertex="1">
          <mxGeometry x="280" width="40" height="40" as="geometry" />
        </mxCell>
        <mxCell id="N6UgiFM23j_v9HVYKGlM-32" value="0" style="rounded=0;whiteSpace=wrap;html=1;fontSize=17;fillColor=#1ba1e2;fontColor=#ffffff;strokeColor=#006EAF;" parent="N6UgiFM23j_v9HVYKGlM-23" vertex="1">
          <mxGeometry x="320" width="40" height="40" as="geometry" />
        </mxCell>
        <mxCell id="N6UgiFM23j_v9HVYKGlM-33" value="1" style="rounded=0;whiteSpace=wrap;html=1;fontSize=17;fillColor=#1ba1e2;fontColor=#ffffff;strokeColor=#006EAF;" parent="N6UgiFM23j_v9HVYKGlM-23" vertex="1">
          <mxGeometry x="360" width="40" height="40" as="geometry" />
        </mxCell>
        <mxCell id="N6UgiFM23j_v9HVYKGlM-34" style="edgeStyle=orthogonalEdgeStyle;rounded=0;orthogonalLoop=1;jettySize=auto;html=1;exitX=0.5;exitY=1;exitDx=0;exitDy=0;entryX=0.5;entryY=0;entryDx=0;entryDy=0;" parent="1" source="N6UgiFM23j_v9HVYKGlM-2" target="N6UgiFM23j_v9HVYKGlM-13" edge="1">
          <mxGeometry relative="1" as="geometry" />
        </mxCell>
        <mxCell id="N6UgiFM23j_v9HVYKGlM-35" style="edgeStyle=orthogonalEdgeStyle;rounded=0;orthogonalLoop=1;jettySize=auto;html=1;exitX=0.5;exitY=1;exitDx=0;exitDy=0;entryX=0.5;entryY=0;entryDx=0;entryDy=0;" parent="1" source="N6UgiFM23j_v9HVYKGlM-3" target="N6UgiFM23j_v9HVYKGlM-14" edge="1">
          <mxGeometry relative="1" as="geometry" />
        </mxCell>
        <mxCell id="N6UgiFM23j_v9HVYKGlM-36" style="edgeStyle=orthogonalEdgeStyle;rounded=0;orthogonalLoop=1;jettySize=auto;html=1;exitX=0.5;exitY=1;exitDx=0;exitDy=0;entryX=0.5;entryY=0;entryDx=0;entryDy=0;" parent="1" source="N6UgiFM23j_v9HVYKGlM-4" target="N6UgiFM23j_v9HVYKGlM-15" edge="1">
          <mxGeometry relative="1" as="geometry" />
        </mxCell>
        <mxCell id="N6UgiFM23j_v9HVYKGlM-37" style="edgeStyle=orthogonalEdgeStyle;rounded=0;orthogonalLoop=1;jettySize=auto;html=1;exitX=0.5;exitY=1;exitDx=0;exitDy=0;entryX=0.5;entryY=0;entryDx=0;entryDy=0;" parent="1" source="N6UgiFM23j_v9HVYKGlM-5" target="N6UgiFM23j_v9HVYKGlM-16" edge="1">
          <mxGeometry relative="1" as="geometry" />
        </mxCell>
        <mxCell id="N6UgiFM23j_v9HVYKGlM-38" style="edgeStyle=orthogonalEdgeStyle;rounded=0;orthogonalLoop=1;jettySize=auto;html=1;exitX=0.5;exitY=1;exitDx=0;exitDy=0;entryX=0.5;entryY=0;entryDx=0;entryDy=0;" parent="1" source="N6UgiFM23j_v9HVYKGlM-6" target="N6UgiFM23j_v9HVYKGlM-17" edge="1">
          <mxGeometry relative="1" as="geometry" />
        </mxCell>
        <mxCell id="N6UgiFM23j_v9HVYKGlM-39" style="edgeStyle=orthogonalEdgeStyle;rounded=0;orthogonalLoop=1;jettySize=auto;html=1;exitX=0.5;exitY=1;exitDx=0;exitDy=0;entryX=0.5;entryY=0;entryDx=0;entryDy=0;" parent="1" source="N6UgiFM23j_v9HVYKGlM-7" target="N6UgiFM23j_v9HVYKGlM-18" edge="1">
          <mxGeometry relative="1" as="geometry" />
        </mxCell>
        <mxCell id="N6UgiFM23j_v9HVYKGlM-40" style="edgeStyle=orthogonalEdgeStyle;rounded=0;orthogonalLoop=1;jettySize=auto;html=1;exitX=0.5;exitY=1;exitDx=0;exitDy=0;entryX=0.5;entryY=0;entryDx=0;entryDy=0;" parent="1" source="N6UgiFM23j_v9HVYKGlM-8" target="N6UgiFM23j_v9HVYKGlM-19" edge="1">
          <mxGeometry relative="1" as="geometry" />
        </mxCell>
        <mxCell id="N6UgiFM23j_v9HVYKGlM-41" style="edgeStyle=orthogonalEdgeStyle;rounded=0;orthogonalLoop=1;jettySize=auto;html=1;exitX=0.5;exitY=1;exitDx=0;exitDy=0;entryX=0.5;entryY=0;entryDx=0;entryDy=0;" parent="1" source="N6UgiFM23j_v9HVYKGlM-9" target="N6UgiFM23j_v9HVYKGlM-20" edge="1">
          <mxGeometry relative="1" as="geometry" />
        </mxCell>
        <mxCell id="N6UgiFM23j_v9HVYKGlM-42" style="edgeStyle=orthogonalEdgeStyle;rounded=0;orthogonalLoop=1;jettySize=auto;html=1;exitX=0.5;exitY=1;exitDx=0;exitDy=0;entryX=0.5;entryY=0;entryDx=0;entryDy=0;" parent="1" source="N6UgiFM23j_v9HVYKGlM-10" target="N6UgiFM23j_v9HVYKGlM-21" edge="1">
          <mxGeometry relative="1" as="geometry" />
        </mxCell>
        <mxCell id="N6UgiFM23j_v9HVYKGlM-43" style="edgeStyle=orthogonalEdgeStyle;rounded=0;orthogonalLoop=1;jettySize=auto;html=1;exitX=0.5;exitY=1;exitDx=0;exitDy=0;entryX=0.5;entryY=0;entryDx=0;entryDy=0;" parent="1" source="N6UgiFM23j_v9HVYKGlM-11" target="N6UgiFM23j_v9HVYKGlM-22" edge="1">
          <mxGeometry relative="1" as="geometry" />
        </mxCell>
        <mxCell id="N6UgiFM23j_v9HVYKGlM-44" value="" style="group;fillColor=#e3c800;fontColor=default;strokeColor=#B09500;" parent="1" vertex="1" connectable="0">
          <mxGeometry x="200" y="780" width="400" height="40" as="geometry" />
        </mxCell>
        <mxCell id="N6UgiFM23j_v9HVYKGlM-45" value="0" style="rounded=0;whiteSpace=wrap;html=1;fontSize=17;fillColor=#e3c800;fontColor=default;strokeColor=#B09500;" parent="N6UgiFM23j_v9HVYKGlM-44" vertex="1">
          <mxGeometry width="40" height="40" as="geometry" />
        </mxCell>
        <mxCell id="N6UgiFM23j_v9HVYKGlM-46" value="1" style="rounded=0;whiteSpace=wrap;html=1;fontSize=17;fillColor=#e3c800;fontColor=default;strokeColor=#B09500;" parent="N6UgiFM23j_v9HVYKGlM-44" vertex="1">
          <mxGeometry x="40" width="40" height="40" as="geometry" />
        </mxCell>
        <mxCell id="N6UgiFM23j_v9HVYKGlM-47" value="0" style="rounded=0;whiteSpace=wrap;html=1;fontSize=17;fillColor=#e3c800;fontColor=default;strokeColor=#B09500;" parent="N6UgiFM23j_v9HVYKGlM-44" vertex="1">
          <mxGeometry x="80" width="40" height="40" as="geometry" />
        </mxCell>
        <mxCell id="N6UgiFM23j_v9HVYKGlM-48" value="1" style="rounded=0;whiteSpace=wrap;html=1;fontSize=17;fillColor=#e3c800;fontColor=default;strokeColor=#B09500;" parent="N6UgiFM23j_v9HVYKGlM-44" vertex="1">
          <mxGeometry x="120" width="40" height="40" as="geometry" />
        </mxCell>
        <mxCell id="N6UgiFM23j_v9HVYKGlM-49" value="0" style="rounded=0;whiteSpace=wrap;html=1;fontSize=17;fillColor=#e3c800;fontColor=default;strokeColor=#B09500;" parent="N6UgiFM23j_v9HVYKGlM-44" vertex="1">
          <mxGeometry x="160" width="40" height="40" as="geometry" />
        </mxCell>
        <mxCell id="N6UgiFM23j_v9HVYKGlM-50" value="1" style="rounded=0;whiteSpace=wrap;html=1;fontSize=17;fillColor=#e3c800;fontColor=default;strokeColor=#B09500;" parent="N6UgiFM23j_v9HVYKGlM-44" vertex="1">
          <mxGeometry x="200" width="40" height="40" as="geometry" />
        </mxCell>
        <mxCell id="N6UgiFM23j_v9HVYKGlM-51" value="0" style="rounded=0;whiteSpace=wrap;html=1;fontSize=17;fillColor=#e3c800;fontColor=default;strokeColor=#B09500;" parent="N6UgiFM23j_v9HVYKGlM-44" vertex="1">
          <mxGeometry x="240" width="40" height="40" as="geometry" />
        </mxCell>
        <mxCell id="N6UgiFM23j_v9HVYKGlM-52" value="1" style="rounded=0;whiteSpace=wrap;html=1;fontSize=17;fillColor=#e3c800;fontColor=default;strokeColor=#B09500;" parent="N6UgiFM23j_v9HVYKGlM-44" vertex="1">
          <mxGeometry x="280" width="40" height="40" as="geometry" />
        </mxCell>
        <mxCell id="N6UgiFM23j_v9HVYKGlM-53" value="0" style="rounded=0;whiteSpace=wrap;html=1;fontSize=17;fillColor=#e3c800;fontColor=default;strokeColor=#B09500;" parent="N6UgiFM23j_v9HVYKGlM-44" vertex="1">
          <mxGeometry x="320" width="40" height="40" as="geometry" />
        </mxCell>
        <mxCell id="N6UgiFM23j_v9HVYKGlM-54" value="1" style="rounded=0;whiteSpace=wrap;html=1;fontSize=17;fillColor=#e3c800;fontColor=default;strokeColor=#B09500;" parent="N6UgiFM23j_v9HVYKGlM-44" vertex="1">
          <mxGeometry x="360" width="40" height="40" as="geometry" />
        </mxCell>
        <mxCell id="N6UgiFM23j_v9HVYKGlM-55" style="edgeStyle=orthogonalEdgeStyle;rounded=0;orthogonalLoop=1;jettySize=auto;html=1;exitX=0.5;exitY=1;exitDx=0;exitDy=0;entryX=0.5;entryY=0;entryDx=0;entryDy=0;" parent="1" source="N6UgiFM23j_v9HVYKGlM-13" target="N6UgiFM23j_v9HVYKGlM-24" edge="1">
          <mxGeometry relative="1" as="geometry" />
        </mxCell>
        <mxCell id="N6UgiFM23j_v9HVYKGlM-56" style="edgeStyle=orthogonalEdgeStyle;rounded=0;orthogonalLoop=1;jettySize=auto;html=1;exitX=0.5;exitY=1;exitDx=0;exitDy=0;entryX=0.5;entryY=0;entryDx=0;entryDy=0;" parent="1" source="N6UgiFM23j_v9HVYKGlM-14" target="N6UgiFM23j_v9HVYKGlM-25" edge="1">
          <mxGeometry relative="1" as="geometry" />
        </mxCell>
        <mxCell id="N6UgiFM23j_v9HVYKGlM-57" style="edgeStyle=orthogonalEdgeStyle;rounded=0;orthogonalLoop=1;jettySize=auto;html=1;exitX=0.5;exitY=1;exitDx=0;exitDy=0;entryX=0.5;entryY=0;entryDx=0;entryDy=0;" parent="1" source="N6UgiFM23j_v9HVYKGlM-15" target="N6UgiFM23j_v9HVYKGlM-26" edge="1">
          <mxGeometry relative="1" as="geometry" />
        </mxCell>
        <mxCell id="N6UgiFM23j_v9HVYKGlM-58" style="edgeStyle=orthogonalEdgeStyle;rounded=0;orthogonalLoop=1;jettySize=auto;html=1;exitX=0.5;exitY=1;exitDx=0;exitDy=0;entryX=0.5;entryY=0;entryDx=0;entryDy=0;" parent="1" source="N6UgiFM23j_v9HVYKGlM-16" target="N6UgiFM23j_v9HVYKGlM-27" edge="1">
          <mxGeometry relative="1" as="geometry" />
        </mxCell>
        <mxCell id="N6UgiFM23j_v9HVYKGlM-59" style="edgeStyle=orthogonalEdgeStyle;rounded=0;orthogonalLoop=1;jettySize=auto;html=1;exitX=0.5;exitY=1;exitDx=0;exitDy=0;entryX=0.5;entryY=0;entryDx=0;entryDy=0;" parent="1" source="N6UgiFM23j_v9HVYKGlM-17" target="N6UgiFM23j_v9HVYKGlM-28" edge="1">
          <mxGeometry relative="1" as="geometry" />
        </mxCell>
        <mxCell id="N6UgiFM23j_v9HVYKGlM-60" style="edgeStyle=orthogonalEdgeStyle;rounded=0;orthogonalLoop=1;jettySize=auto;html=1;exitX=0.5;exitY=1;exitDx=0;exitDy=0;entryX=0.5;entryY=0;entryDx=0;entryDy=0;" parent="1" source="N6UgiFM23j_v9HVYKGlM-18" target="N6UgiFM23j_v9HVYKGlM-29" edge="1">
          <mxGeometry relative="1" as="geometry" />
        </mxCell>
        <mxCell id="N6UgiFM23j_v9HVYKGlM-61" style="edgeStyle=orthogonalEdgeStyle;rounded=0;orthogonalLoop=1;jettySize=auto;html=1;exitX=0.5;exitY=1;exitDx=0;exitDy=0;entryX=0.5;entryY=0;entryDx=0;entryDy=0;" parent="1" source="N6UgiFM23j_v9HVYKGlM-19" target="N6UgiFM23j_v9HVYKGlM-30" edge="1">
          <mxGeometry relative="1" as="geometry" />
        </mxCell>
        <mxCell id="N6UgiFM23j_v9HVYKGlM-62" style="edgeStyle=orthogonalEdgeStyle;rounded=0;orthogonalLoop=1;jettySize=auto;html=1;exitX=0.5;exitY=1;exitDx=0;exitDy=0;entryX=0.5;entryY=0;entryDx=0;entryDy=0;" parent="1" source="N6UgiFM23j_v9HVYKGlM-20" target="N6UgiFM23j_v9HVYKGlM-31" edge="1">
          <mxGeometry relative="1" as="geometry" />
        </mxCell>
        <mxCell id="N6UgiFM23j_v9HVYKGlM-63" style="edgeStyle=orthogonalEdgeStyle;rounded=0;orthogonalLoop=1;jettySize=auto;html=1;exitX=0.5;exitY=1;exitDx=0;exitDy=0;entryX=0.5;entryY=0;entryDx=0;entryDy=0;" parent="1" source="N6UgiFM23j_v9HVYKGlM-21" target="N6UgiFM23j_v9HVYKGlM-32" edge="1">
          <mxGeometry relative="1" as="geometry" />
        </mxCell>
        <mxCell id="N6UgiFM23j_v9HVYKGlM-64" style="edgeStyle=orthogonalEdgeStyle;rounded=0;orthogonalLoop=1;jettySize=auto;html=1;exitX=0.5;exitY=1;exitDx=0;exitDy=0;entryX=0.5;entryY=0;entryDx=0;entryDy=0;" parent="1" source="N6UgiFM23j_v9HVYKGlM-22" target="N6UgiFM23j_v9HVYKGlM-33" edge="1">
          <mxGeometry relative="1" as="geometry" />
        </mxCell>
        <mxCell id="N6UgiFM23j_v9HVYKGlM-65" value="" style="group;fillColor=#e3c800;fontColor=default;strokeColor=#B09500;" parent="1" vertex="1" connectable="0">
          <mxGeometry x="200" y="980" width="400" height="40" as="geometry" />
        </mxCell>
        <mxCell id="N6UgiFM23j_v9HVYKGlM-66" value="0" style="rounded=0;whiteSpace=wrap;html=1;fontSize=17;fillColor=#e3c800;fontColor=default;strokeColor=#B09500;" parent="N6UgiFM23j_v9HVYKGlM-65" vertex="1">
          <mxGeometry width="40" height="40" as="geometry" />
        </mxCell>
        <mxCell id="N6UgiFM23j_v9HVYKGlM-67" value="1" style="rounded=0;whiteSpace=wrap;html=1;fontSize=17;fillColor=#e3c800;fontColor=default;strokeColor=#B09500;" parent="N6UgiFM23j_v9HVYKGlM-65" vertex="1">
          <mxGeometry x="40" width="40" height="40" as="geometry" />
        </mxCell>
        <mxCell id="N6UgiFM23j_v9HVYKGlM-68" value="0" style="rounded=0;whiteSpace=wrap;html=1;fontSize=17;fillColor=#e3c800;fontColor=default;strokeColor=#B09500;" parent="N6UgiFM23j_v9HVYKGlM-65" vertex="1">
          <mxGeometry x="80" width="40" height="40" as="geometry" />
        </mxCell>
        <mxCell id="N6UgiFM23j_v9HVYKGlM-69" value="1" style="rounded=0;whiteSpace=wrap;html=1;fontSize=17;fillColor=#e3c800;fontColor=default;strokeColor=#B09500;" parent="N6UgiFM23j_v9HVYKGlM-65" vertex="1">
          <mxGeometry x="120" width="40" height="40" as="geometry" />
        </mxCell>
        <mxCell id="N6UgiFM23j_v9HVYKGlM-70" value="0" style="rounded=0;whiteSpace=wrap;html=1;fontSize=17;fillColor=#e3c800;fontColor=default;strokeColor=#B09500;" parent="N6UgiFM23j_v9HVYKGlM-65" vertex="1">
          <mxGeometry x="160" width="40" height="40" as="geometry" />
        </mxCell>
        <mxCell id="N6UgiFM23j_v9HVYKGlM-71" value="1" style="rounded=0;whiteSpace=wrap;html=1;fontSize=17;fillColor=#e3c800;fontColor=default;strokeColor=#B09500;" parent="N6UgiFM23j_v9HVYKGlM-65" vertex="1">
          <mxGeometry x="200" width="40" height="40" as="geometry" />
        </mxCell>
        <mxCell id="N6UgiFM23j_v9HVYKGlM-72" value="0" style="rounded=0;whiteSpace=wrap;html=1;fontSize=17;fillColor=#e3c800;fontColor=default;strokeColor=#B09500;" parent="N6UgiFM23j_v9HVYKGlM-65" vertex="1">
          <mxGeometry x="240" width="40" height="40" as="geometry" />
        </mxCell>
        <mxCell id="N6UgiFM23j_v9HVYKGlM-73" value="1" style="rounded=0;whiteSpace=wrap;html=1;fontSize=17;fillColor=#e3c800;fontColor=default;strokeColor=#B09500;" parent="N6UgiFM23j_v9HVYKGlM-65" vertex="1">
          <mxGeometry x="280" width="40" height="40" as="geometry" />
        </mxCell>
        <mxCell id="N6UgiFM23j_v9HVYKGlM-74" value="0" style="rounded=0;whiteSpace=wrap;html=1;fontSize=17;fillColor=#e3c800;fontColor=default;strokeColor=#B09500;" parent="N6UgiFM23j_v9HVYKGlM-65" vertex="1">
          <mxGeometry x="320" width="40" height="40" as="geometry" />
        </mxCell>
        <mxCell id="N6UgiFM23j_v9HVYKGlM-75" value="1" style="rounded=0;whiteSpace=wrap;html=1;fontSize=17;fillColor=#e3c800;fontColor=default;strokeColor=#B09500;" parent="N6UgiFM23j_v9HVYKGlM-65" vertex="1">
          <mxGeometry x="360" width="40" height="40" as="geometry" />
        </mxCell>
        <mxCell id="PRJtjj65LoqjccDdUGkY-1" value="原始字串" style="text;html=1;strokeColor=none;fillColor=none;align=center;verticalAlign=middle;whiteSpace=wrap;rounded=0;fontSize=20;" parent="1" vertex="1">
          <mxGeometry x="75" y="685" width="90" height="30" as="geometry" />
        </mxCell>
        <mxCell id="PRJtjj65LoqjccDdUGkY-2" value="加密字串" style="text;html=1;strokeColor=none;fillColor=none;align=center;verticalAlign=middle;whiteSpace=wrap;rounded=0;fontSize=20;" parent="1" vertex="1">
          <mxGeometry x="75" y="785" width="90" height="30" as="geometry" />
        </mxCell>
        <mxCell id="PRJtjj65LoqjccDdUGkY-3" value="解密字串" style="text;html=1;strokeColor=none;fillColor=none;align=center;verticalAlign=middle;whiteSpace=wrap;rounded=0;fontSize=20;" parent="1" vertex="1">
          <mxGeometry x="75" y="985" width="90" height="30" as="geometry" />
        </mxCell>
        <mxCell id="0PdhtA0tHWt-f5RssqiB-1" value="加密" style="text;html=1;strokeColor=none;fillColor=none;align=center;verticalAlign=middle;whiteSpace=wrap;rounded=0;fontSize=20;" parent="1" vertex="1">
          <mxGeometry x="75" y="885" width="90" height="30" as="geometry" />
        </mxCell>
        <mxCell id="0PdhtA0tHWt-f5RssqiB-2" value="解密" style="text;html=1;strokeColor=none;fillColor=none;align=center;verticalAlign=middle;whiteSpace=wrap;rounded=0;fontSize=20;" parent="1" vertex="1">
          <mxGeometry x="75" y="1085" width="90" height="30" as="geometry" />
        </mxCell>
        <mxCell id="0PdhtA0tHWt-f5RssqiB-3" value="" style="group;fillColor=#e3c800;fontColor=default;strokeColor=#B09500;" parent="1" vertex="1" connectable="0">
          <mxGeometry x="200" y="627" width="400" height="40" as="geometry" />
        </mxCell>
        <mxCell id="0PdhtA0tHWt-f5RssqiB-4" value="0" style="rounded=0;whiteSpace=wrap;html=1;fontSize=17;fillColor=#e3c800;fontColor=default;strokeColor=#B09500;" parent="0PdhtA0tHWt-f5RssqiB-3" vertex="1">
          <mxGeometry width="40" height="40" as="geometry" />
        </mxCell>
        <mxCell id="0PdhtA0tHWt-f5RssqiB-5" value="1" style="rounded=0;whiteSpace=wrap;html=1;fontSize=17;fillColor=#e3c800;fontColor=default;strokeColor=#B09500;" parent="0PdhtA0tHWt-f5RssqiB-3" vertex="1">
          <mxGeometry x="40" width="40" height="40" as="geometry" />
        </mxCell>
        <mxCell id="0PdhtA0tHWt-f5RssqiB-6" value="0" style="rounded=0;whiteSpace=wrap;html=1;fontSize=17;fillColor=#e3c800;fontColor=default;strokeColor=#B09500;" parent="0PdhtA0tHWt-f5RssqiB-3" vertex="1">
          <mxGeometry x="80" width="40" height="40" as="geometry" />
        </mxCell>
        <mxCell id="0PdhtA0tHWt-f5RssqiB-7" value="1" style="rounded=0;whiteSpace=wrap;html=1;fontSize=17;fillColor=#e3c800;fontColor=default;strokeColor=#B09500;" parent="0PdhtA0tHWt-f5RssqiB-3" vertex="1">
          <mxGeometry x="120" width="40" height="40" as="geometry" />
        </mxCell>
        <mxCell id="0PdhtA0tHWt-f5RssqiB-8" value="0" style="rounded=0;whiteSpace=wrap;html=1;fontSize=17;fillColor=#e3c800;fontColor=default;strokeColor=#B09500;" parent="0PdhtA0tHWt-f5RssqiB-3" vertex="1">
          <mxGeometry x="160" width="40" height="40" as="geometry" />
        </mxCell>
        <mxCell id="0PdhtA0tHWt-f5RssqiB-9" value="1" style="rounded=0;whiteSpace=wrap;html=1;fontSize=17;fillColor=#e3c800;fontColor=default;strokeColor=#B09500;" parent="0PdhtA0tHWt-f5RssqiB-3" vertex="1">
          <mxGeometry x="200" width="40" height="40" as="geometry" />
        </mxCell>
        <mxCell id="0PdhtA0tHWt-f5RssqiB-10" value="0" style="rounded=0;whiteSpace=wrap;html=1;fontSize=17;fillColor=#e3c800;fontColor=default;strokeColor=#B09500;" parent="0PdhtA0tHWt-f5RssqiB-3" vertex="1">
          <mxGeometry x="240" width="40" height="40" as="geometry" />
        </mxCell>
        <mxCell id="0PdhtA0tHWt-f5RssqiB-11" value="1" style="rounded=0;whiteSpace=wrap;html=1;fontSize=17;fillColor=#e3c800;fontColor=default;strokeColor=#B09500;" parent="0PdhtA0tHWt-f5RssqiB-3" vertex="1">
          <mxGeometry x="280" width="40" height="40" as="geometry" />
        </mxCell>
        <mxCell id="0PdhtA0tHWt-f5RssqiB-12" value="0" style="rounded=0;whiteSpace=wrap;html=1;fontSize=17;fillColor=#e3c800;fontColor=default;strokeColor=#B09500;" parent="0PdhtA0tHWt-f5RssqiB-3" vertex="1">
          <mxGeometry x="320" width="40" height="40" as="geometry" />
        </mxCell>
        <mxCell id="0PdhtA0tHWt-f5RssqiB-13" value="1" style="rounded=0;whiteSpace=wrap;html=1;fontSize=17;fillColor=#e3c800;fontColor=default;strokeColor=#B09500;" parent="0PdhtA0tHWt-f5RssqiB-3" vertex="1">
          <mxGeometry x="360" width="40" height="40" as="geometry" />
        </mxCell>
        <mxCell id="0PdhtA0tHWt-f5RssqiB-14" value="加 / 解密字串" style="text;html=1;strokeColor=none;fillColor=none;align=center;verticalAlign=middle;whiteSpace=wrap;rounded=0;fontSize=20;" parent="1" vertex="1">
          <mxGeometry x="56.25" y="632" width="127.5" height="30" as="geometry" />
        </mxCell>
      </root>
    </mxGraphModel>
  </diagram>
  <diagram id="8eLk2LVNIBxLq6kB3ZQZ" name="第3頁">
    <mxGraphModel dx="1026" dy="662" grid="1" gridSize="10" guides="1" tooltips="1" connect="1" arrows="1" fold="1" page="1" pageScale="1" pageWidth="3300" pageHeight="2339" math="0" shadow="0">
      <root>
        <mxCell id="0" />
        <mxCell id="1" parent="0" />
        <mxCell id="whQMxbanxhV3z_o8E2Da-4" style="edgeStyle=orthogonalEdgeStyle;rounded=0;orthogonalLoop=1;jettySize=auto;html=1;exitX=1;exitY=0.5;exitDx=0;exitDy=0;exitPerimeter=0;entryX=0;entryY=0.5;entryDx=0;entryDy=0;entryPerimeter=0;" edge="1" parent="1" source="whQMxbanxhV3z_o8E2Da-1" target="whQMxbanxhV3z_o8E2Da-3">
          <mxGeometry relative="1" as="geometry" />
        </mxCell>
        <mxCell id="whQMxbanxhV3z_o8E2Da-1" value="哈囉，妳好嗎？" style="sketch=0;points=[[0,0,0],[0.25,0,0],[0.5,0,0],[0.75,0,0],[1,0,0],[1,0.25,0],[1,0.5,0],[1,0.75,0],[1,1,0],[0.75,1,0],[0.5,1,0],[0.25,1,0],[0,1,0],[0,0.75,0],[0,0.5,0],[0,0.25,0]];rounded=1;absoluteArcSize=1;arcSize=2;html=1;strokeColor=none;gradientColor=none;shadow=0;dashed=0;fontSize=16;fontColor=#9E9E9E;align=left;verticalAlign=top;spacing=10;spacingTop=-4;whiteSpace=wrap;fillColor=#EFEBE9;" vertex="1" parent="1">
          <mxGeometry x="100" y="210" width="150" height="200" as="geometry" />
        </mxCell>
        <mxCell id="whQMxbanxhV3z_o8E2Da-2" value="哈囉，妳好嗎？" style="sketch=0;points=[[0,0,0],[0.25,0,0],[0.5,0,0],[0.75,0,0],[1,0,0],[1,0.25,0],[1,0.5,0],[1,0.75,0],[1,1,0],[0.75,1,0],[0.5,1,0],[0.25,1,0],[0,1,0],[0,0.75,0],[0,0.5,0],[0,0.25,0]];rounded=1;absoluteArcSize=1;arcSize=2;html=1;strokeColor=none;gradientColor=none;shadow=0;dashed=0;fontSize=16;fontColor=#9E9E9E;align=left;verticalAlign=top;spacing=10;spacingTop=-4;whiteSpace=wrap;fillColor=#EFEBE9;" vertex="1" parent="1">
          <mxGeometry x="640" y="210" width="150" height="200" as="geometry" />
        </mxCell>
        <mxCell id="whQMxbanxhV3z_o8E2Da-5" style="edgeStyle=orthogonalEdgeStyle;rounded=0;orthogonalLoop=1;jettySize=auto;html=1;exitX=1;exitY=0.5;exitDx=0;exitDy=0;exitPerimeter=0;entryX=0;entryY=0.5;entryDx=0;entryDy=0;entryPerimeter=0;" edge="1" parent="1" source="whQMxbanxhV3z_o8E2Da-3" target="whQMxbanxhV3z_o8E2Da-2">
          <mxGeometry relative="1" as="geometry" />
        </mxCell>
        <mxCell id="whQMxbanxhV3z_o8E2Da-3" value="&lt;div style=&quot;&quot;&gt;&lt;span style=&quot;background-color: initial;&quot;&gt;09fd52e1b9d7aa1f&lt;/span&gt;&lt;/div&gt;&lt;div style=&quot;&quot;&gt;&lt;span style=&quot;background-color: initial;&quot;&gt;8&lt;/span&gt;&lt;span style=&quot;background-color: initial;&quot;&gt;6cc12fde63f1f2e&lt;/span&gt;&lt;/div&gt;" style="sketch=0;points=[[0,0,0],[0.25,0,0],[0.5,0,0],[0.75,0,0],[1,0,0],[1,0.25,0],[1,0.5,0],[1,0.75,0],[1,1,0],[0.75,1,0],[0.5,1,0],[0.25,1,0],[0,1,0],[0,0.75,0],[0,0.5,0],[0,0.25,0]];rounded=1;absoluteArcSize=1;arcSize=2;html=1;strokeColor=none;gradientColor=none;shadow=0;dashed=0;fontSize=16;fontColor=#9E9E9E;align=left;verticalAlign=top;spacing=10;spacingTop=-4;whiteSpace=wrap;fillColor=#EFEBE9;" vertex="1" parent="1">
          <mxGeometry x="370" y="210" width="150" height="200" as="geometry" />
        </mxCell>
        <mxCell id="whQMxbanxhV3z_o8E2Da-6" value="" style="sketch=0;pointerEvents=1;shadow=0;dashed=0;html=1;strokeColor=none;labelPosition=center;verticalLabelPosition=bottom;verticalAlign=top;outlineConnect=0;align=center;shape=mxgraph.office.security.key_permissions;fillColor=#7FBA42;" vertex="1" parent="1">
          <mxGeometry x="300" y="220" width="25" height="53" as="geometry" />
        </mxCell>
        <mxCell id="whQMxbanxhV3z_o8E2Da-7" value="" style="sketch=0;pointerEvents=1;shadow=0;dashed=0;html=1;strokeColor=none;labelPosition=center;verticalLabelPosition=bottom;verticalAlign=top;outlineConnect=0;align=center;shape=mxgraph.office.security.key_permissions;fillColor=#7FBA42;" vertex="1" parent="1">
          <mxGeometry x="570" y="220" width="25" height="53" as="geometry" />
        </mxCell>
        <mxCell id="whQMxbanxhV3z_o8E2Da-8" value="加密" style="text;html=1;align=center;verticalAlign=middle;resizable=0;points=[];autosize=1;strokeColor=none;fillColor=none;fontSize=16;" vertex="1" parent="1">
          <mxGeometry x="282.5" y="280" width="60" height="30" as="geometry" />
        </mxCell>
        <mxCell id="whQMxbanxhV3z_o8E2Da-9" value="解密" style="text;html=1;align=center;verticalAlign=middle;resizable=0;points=[];autosize=1;strokeColor=none;fillColor=none;fontSize=16;" vertex="1" parent="1">
          <mxGeometry x="552.5" y="280" width="60" height="30" as="geometry" />
        </mxCell>
        <mxCell id="whQMxbanxhV3z_o8E2Da-10" value="《對稱加密》" style="text;html=1;align=center;verticalAlign=middle;resizable=0;points=[];autosize=1;strokeColor=none;fillColor=none;fontSize=36;" vertex="1" parent="1">
          <mxGeometry x="325" y="95" width="240" height="60" as="geometry" />
        </mxCell>
      </root>
    </mxGraphModel>
  </diagram>
  <diagram id="FK8FjdxeJfyN4lz9u47U" name="第4頁">
    <mxGraphModel dx="1026" dy="662" grid="1" gridSize="10" guides="1" tooltips="1" connect="1" arrows="1" fold="1" page="1" pageScale="1" pageWidth="3300" pageHeight="2339" math="0" shadow="0">
      <root>
        <mxCell id="0" />
        <mxCell id="1" parent="0" />
        <mxCell id="w8UjdMgbvabnIL6bt7TJ-1" style="edgeStyle=orthogonalEdgeStyle;rounded=0;orthogonalLoop=1;jettySize=auto;html=1;exitX=1;exitY=0.5;exitDx=0;exitDy=0;exitPerimeter=0;entryX=0;entryY=0.5;entryDx=0;entryDy=0;entryPerimeter=0;" edge="1" parent="1" source="w8UjdMgbvabnIL6bt7TJ-2" target="w8UjdMgbvabnIL6bt7TJ-5">
          <mxGeometry relative="1" as="geometry" />
        </mxCell>
        <mxCell id="w8UjdMgbvabnIL6bt7TJ-2" value="哈囉，妳好嗎？" style="sketch=0;points=[[0,0,0],[0.25,0,0],[0.5,0,0],[0.75,0,0],[1,0,0],[1,0.25,0],[1,0.5,0],[1,0.75,0],[1,1,0],[0.75,1,0],[0.5,1,0],[0.25,1,0],[0,1,0],[0,0.75,0],[0,0.5,0],[0,0.25,0]];rounded=1;absoluteArcSize=1;arcSize=2;html=1;strokeColor=#2D7600;shadow=0;dashed=0;fontSize=16;fontColor=#ffffff;align=left;verticalAlign=top;spacing=10;spacingTop=-4;whiteSpace=wrap;fillColor=#60a917;" vertex="1" parent="1">
          <mxGeometry x="100" y="210" width="150" height="200" as="geometry" />
        </mxCell>
        <mxCell id="w8UjdMgbvabnIL6bt7TJ-3" value="哈囉，妳好嗎？" style="sketch=0;points=[[0,0,0],[0.25,0,0],[0.5,0,0],[0.75,0,0],[1,0,0],[1,0.25,0],[1,0.5,0],[1,0.75,0],[1,1,0],[0.75,1,0],[0.5,1,0],[0.25,1,0],[0,1,0],[0,0.75,0],[0,0.5,0],[0,0.25,0]];rounded=1;absoluteArcSize=1;arcSize=2;html=1;strokeColor=#006EAF;shadow=0;dashed=0;fontSize=16;fontColor=#ffffff;align=left;verticalAlign=top;spacing=10;spacingTop=-4;whiteSpace=wrap;fillColor=#1ba1e2;" vertex="1" parent="1">
          <mxGeometry x="640" y="210" width="150" height="200" as="geometry" />
        </mxCell>
        <mxCell id="w8UjdMgbvabnIL6bt7TJ-4" style="edgeStyle=orthogonalEdgeStyle;rounded=0;orthogonalLoop=1;jettySize=auto;html=1;exitX=1;exitY=0.5;exitDx=0;exitDy=0;exitPerimeter=0;entryX=0;entryY=0.5;entryDx=0;entryDy=0;entryPerimeter=0;" edge="1" parent="1" source="w8UjdMgbvabnIL6bt7TJ-5" target="w8UjdMgbvabnIL6bt7TJ-3">
          <mxGeometry relative="1" as="geometry" />
        </mxCell>
        <mxCell id="w8UjdMgbvabnIL6bt7TJ-13" style="edgeStyle=orthogonalEdgeStyle;rounded=0;orthogonalLoop=1;jettySize=auto;html=1;exitX=0.5;exitY=1;exitDx=0;exitDy=0;exitPerimeter=0;entryX=0;entryY=0.5;entryDx=0;entryDy=0;entryPerimeter=0;" edge="1" parent="1" source="w8UjdMgbvabnIL6bt7TJ-5" target="w8UjdMgbvabnIL6bt7TJ-12">
          <mxGeometry relative="1" as="geometry" />
        </mxCell>
        <mxCell id="w8UjdMgbvabnIL6bt7TJ-5" value="&lt;div style=&quot;&quot;&gt;19b6092604482d&lt;/div&gt;&lt;div style=&quot;&quot;&gt;c5e4ac73affca448&lt;/div&gt;&lt;div style=&quot;&quot;&gt;c2dcc06619847f31&lt;/div&gt;&lt;div style=&quot;&quot;&gt;732086d495f59a0c&lt;/div&gt;&lt;div style=&quot;&quot;&gt;34&lt;br&gt;&lt;/div&gt;" style="sketch=0;points=[[0,0,0],[0.25,0,0],[0.5,0,0],[0.75,0,0],[1,0,0],[1,0.25,0],[1,0.5,0],[1,0.75,0],[1,1,0],[0.75,1,0],[0.5,1,0],[0.25,1,0],[0,1,0],[0,0.75,0],[0,0.5,0],[0,0.25,0]];rounded=1;absoluteArcSize=1;arcSize=2;html=1;strokeColor=#6F0000;shadow=0;dashed=0;fontSize=16;fontColor=#ffffff;align=left;verticalAlign=top;spacing=10;spacingTop=-4;whiteSpace=wrap;fillColor=#a20025;" vertex="1" parent="1">
          <mxGeometry x="370" y="210" width="150" height="200" as="geometry" />
        </mxCell>
        <mxCell id="w8UjdMgbvabnIL6bt7TJ-6" value="" style="sketch=0;pointerEvents=1;shadow=0;dashed=0;html=1;strokeColor=none;labelPosition=center;verticalLabelPosition=bottom;verticalAlign=top;outlineConnect=0;align=center;shape=mxgraph.office.security.key_permissions;fillColor=#7FBA42;" vertex="1" parent="1">
          <mxGeometry x="300" y="220" width="25" height="53" as="geometry" />
        </mxCell>
        <mxCell id="w8UjdMgbvabnIL6bt7TJ-8" value="加密" style="text;html=1;align=center;verticalAlign=middle;resizable=0;points=[];autosize=1;strokeColor=none;fillColor=none;fontSize=16;" vertex="1" parent="1">
          <mxGeometry x="282.5" y="280" width="60" height="30" as="geometry" />
        </mxCell>
        <mxCell id="w8UjdMgbvabnIL6bt7TJ-9" value="解密" style="text;html=1;align=center;verticalAlign=middle;resizable=0;points=[];autosize=1;strokeColor=none;fillColor=none;fontSize=16;" vertex="1" parent="1">
          <mxGeometry x="552.5" y="280" width="60" height="30" as="geometry" />
        </mxCell>
        <mxCell id="w8UjdMgbvabnIL6bt7TJ-10" value="《非對稱加密》" style="text;html=1;align=center;verticalAlign=middle;resizable=0;points=[];autosize=1;strokeColor=none;fillColor=none;fontSize=36;" vertex="1" parent="1">
          <mxGeometry x="305" y="95" width="280" height="60" as="geometry" />
        </mxCell>
        <mxCell id="w8UjdMgbvabnIL6bt7TJ-11" value="" style="sketch=0;pointerEvents=1;shadow=0;dashed=0;html=1;strokeColor=none;labelPosition=center;verticalLabelPosition=bottom;verticalAlign=top;outlineConnect=0;align=center;shape=mxgraph.office.security.key_permissions;fillColor=#DA4026;" vertex="1" parent="1">
          <mxGeometry x="570" y="220" width="25" height="53" as="geometry" />
        </mxCell>
        <mxCell id="w8UjdMgbvabnIL6bt7TJ-12" value="" style="sketch=0;points=[[0,0,0],[0.25,0,0],[0.5,0,0],[0.75,0,0],[1,0,0],[1,0.25,0],[1,0.5,0],[1,0.75,0],[1,1,0],[0.75,1,0],[0.5,1,0],[0.25,1,0],[0,1,0],[0,0.75,0],[0,0.5,0],[0,0.25,0]];rounded=1;absoluteArcSize=1;arcSize=2;html=1;strokeColor=#56517e;shadow=0;dashed=0;fontSize=16;align=left;verticalAlign=top;spacing=10;spacingTop=-4;whiteSpace=wrap;fillColor=#d0cee2;" vertex="1" parent="1">
          <mxGeometry x="640" y="470" width="150" height="200" as="geometry" />
        </mxCell>
        <mxCell id="w8UjdMgbvabnIL6bt7TJ-14" value="" style="sketch=0;pointerEvents=1;shadow=0;dashed=0;html=1;strokeColor=none;labelPosition=center;verticalLabelPosition=bottom;verticalAlign=top;outlineConnect=0;align=center;shape=mxgraph.office.security.key_permissions;fillColor=#7FBA42;" vertex="1" parent="1">
          <mxGeometry x="570" y="480" width="25" height="53" as="geometry" />
        </mxCell>
        <mxCell id="w8UjdMgbvabnIL6bt7TJ-15" value="解密" style="text;html=1;align=center;verticalAlign=middle;resizable=0;points=[];autosize=1;strokeColor=none;fillColor=none;fontSize=16;" vertex="1" parent="1">
          <mxGeometry x="552.5" y="540" width="60" height="30" as="geometry" />
        </mxCell>
        <mxCell id="w8UjdMgbvabnIL6bt7TJ-16" value="" style="shape=mxgraph.mockup.markup.redX;fillColor=#ff0000;html=1;shadow=0;whiteSpace=wrap;strokeColor=none;" vertex="1" parent="1">
          <mxGeometry x="690" y="546.5" width="50" height="47" as="geometry" />
        </mxCell>
      </root>
    </mxGraphModel>
  </diagram>
  <diagram id="xyCq4ApxiLRkcMPEbbYn" name="第5頁">
    <mxGraphModel dx="4326" dy="661" grid="1" gridSize="10" guides="1" tooltips="1" connect="1" arrows="1" fold="1" page="1" pageScale="1" pageWidth="3300" pageHeight="2339" math="0" shadow="0">
      <root>
        <mxCell id="0" />
        <mxCell id="1" parent="0" />
        <mxCell id="ZOWR-ltlrKuSY-oQ_u5s-13" style="edgeStyle=orthogonalEdgeStyle;rounded=0;orthogonalLoop=1;jettySize=auto;html=1;exitX=0;exitY=0.5;exitDx=0;exitDy=0;shape=flexArrow;fillColor=#fad7ac;strokeColor=#b46504;" parent="1" source="ZOWR-ltlrKuSY-oQ_u5s-1" target="ZOWR-ltlrKuSY-oQ_u5s-11" edge="1">
          <mxGeometry relative="1" as="geometry" />
        </mxCell>
        <mxCell id="ZOWR-ltlrKuSY-oQ_u5s-38" style="edgeStyle=orthogonalEdgeStyle;rounded=0;orthogonalLoop=1;jettySize=auto;html=1;exitX=1;exitY=0.5;exitDx=0;exitDy=0;entryX=0;entryY=0.5;entryDx=0;entryDy=0;shape=flexArrow;fillColor=#1ba1e2;strokeColor=#006EAF;" parent="1" source="ZOWR-ltlrKuSY-oQ_u5s-1" target="ZOWR-ltlrKuSY-oQ_u5s-32" edge="1">
          <mxGeometry relative="1" as="geometry" />
        </mxCell>
        <mxCell id="ZOWR-ltlrKuSY-oQ_u5s-1" value="" style="rounded=1;arcSize=10;strokeColor=#0e8088;fillColor=#b0e3e6;" parent="1" vertex="1">
          <mxGeometry x="360" y="170" width="199.5" height="199.5" as="geometry" />
        </mxCell>
        <mxCell id="ZOWR-ltlrKuSY-oQ_u5s-9" value="" style="group" parent="1" vertex="1" connectable="0">
          <mxGeometry x="470" y="280" width="70" height="83" as="geometry" />
        </mxCell>
        <mxCell id="ZOWR-ltlrKuSY-oQ_u5s-4" value="" style="sketch=0;pointerEvents=1;shadow=0;dashed=0;html=1;strokeColor=none;labelPosition=center;verticalLabelPosition=bottom;verticalAlign=top;outlineConnect=0;align=center;shape=mxgraph.office.security.key_permissions;fillColor=#DA4026;" parent="ZOWR-ltlrKuSY-oQ_u5s-9" vertex="1">
          <mxGeometry x="22.5" width="25" height="53" as="geometry" />
        </mxCell>
        <mxCell id="ZOWR-ltlrKuSY-oQ_u5s-7" value="解密用" style="text;html=1;align=center;verticalAlign=middle;resizable=0;points=[];autosize=1;fontColor=#000000;fontSize=16;" parent="ZOWR-ltlrKuSY-oQ_u5s-9" vertex="1">
          <mxGeometry y="53" width="70" height="30" as="geometry" />
        </mxCell>
        <mxCell id="ZOWR-ltlrKuSY-oQ_u5s-2" value="" style="image;aspect=fixed;perimeter=ellipsePerimeter;html=1;align=center;shadow=0;dashed=0;spacingTop=3;image=img/lib/active_directory/web_server.svg;" parent="1" vertex="1">
          <mxGeometry x="433" y="185" width="60" height="75" as="geometry" />
        </mxCell>
        <mxCell id="ZOWR-ltlrKuSY-oQ_u5s-10" value="" style="group" parent="1" vertex="1" connectable="0">
          <mxGeometry x="377.5" y="280" width="70" height="83" as="geometry" />
        </mxCell>
        <mxCell id="ZOWR-ltlrKuSY-oQ_u5s-3" value="" style="sketch=0;pointerEvents=1;shadow=0;dashed=0;html=1;strokeColor=none;labelPosition=center;verticalLabelPosition=bottom;verticalAlign=top;outlineConnect=0;align=center;shape=mxgraph.office.security.key_permissions;fillColor=#7FBA42;" parent="ZOWR-ltlrKuSY-oQ_u5s-10" vertex="1">
          <mxGeometry x="22.5" width="25" height="53" as="geometry" />
        </mxCell>
        <mxCell id="ZOWR-ltlrKuSY-oQ_u5s-6" value="加密用" style="text;html=1;align=center;verticalAlign=middle;resizable=0;points=[];autosize=1;fontColor=#000000;fontSize=16;" parent="ZOWR-ltlrKuSY-oQ_u5s-10" vertex="1">
          <mxGeometry y="53" width="70" height="30" as="geometry" />
        </mxCell>
        <mxCell id="ZOWR-ltlrKuSY-oQ_u5s-28" style="edgeStyle=orthogonalEdgeStyle;rounded=0;orthogonalLoop=1;jettySize=auto;html=1;exitX=0.5;exitY=1;exitDx=0;exitDy=0;exitPerimeter=0;entryX=0.5;entryY=0;entryDx=0;entryDy=0;shape=flexArrow;fillColor=#fad7ac;strokeColor=#b46504;" parent="1" source="ZOWR-ltlrKuSY-oQ_u5s-11" target="ZOWR-ltlrKuSY-oQ_u5s-22" edge="1">
          <mxGeometry relative="1" as="geometry" />
        </mxCell>
        <mxCell id="ZOWR-ltlrKuSY-oQ_u5s-11" value="" style="fontColor=#0066CC;verticalAlign=top;verticalLabelPosition=bottom;labelPosition=center;align=center;html=1;outlineConnect=0;fillColor=#CCCCCC;strokeColor=#6881B3;gradientColor=none;gradientDirection=north;strokeWidth=2;shape=mxgraph.networks.pc;" parent="1" vertex="1">
          <mxGeometry x="-130" y="204.75" width="185.71" height="130" as="geometry" />
        </mxCell>
        <mxCell id="ZOWR-ltlrKuSY-oQ_u5s-14" value="Hello !!!" style="text;html=1;align=center;verticalAlign=middle;resizable=0;points=[];autosize=1;strokeColor=none;fillColor=none;fontColor=#000000;fontSize=20;" parent="1" vertex="1">
          <mxGeometry x="-64" y="237" width="90" height="40" as="geometry" />
        </mxCell>
        <mxCell id="ZOWR-ltlrKuSY-oQ_u5s-15" value="" style="group" parent="1" vertex="1" connectable="0">
          <mxGeometry x="190" y="177" width="120" height="83" as="geometry" />
        </mxCell>
        <mxCell id="ZOWR-ltlrKuSY-oQ_u5s-16" value="" style="sketch=0;pointerEvents=1;shadow=0;dashed=0;html=1;strokeColor=none;labelPosition=center;verticalLabelPosition=bottom;verticalAlign=top;outlineConnect=0;align=center;shape=mxgraph.office.security.key_permissions;fillColor=#7FBA42;" parent="ZOWR-ltlrKuSY-oQ_u5s-15" vertex="1">
          <mxGeometry x="22.5" width="25" height="53" as="geometry" />
        </mxCell>
        <mxCell id="ZOWR-ltlrKuSY-oQ_u5s-17" value="① 複製加密用的Key" style="text;html=1;align=center;verticalAlign=middle;resizable=0;points=[];autosize=1;fontColor=#000000;fontSize=16;" parent="ZOWR-ltlrKuSY-oQ_u5s-15" vertex="1">
          <mxGeometry x="-50" y="53" width="170" height="30" as="geometry" />
        </mxCell>
        <mxCell id="ZOWR-ltlrKuSY-oQ_u5s-24" value="359d296332&lt;br&gt;976e5ad96b&lt;br&gt;1ef4e0b3208&lt;br&gt;508281f39" style="sketch=0;points=[[0,0,0],[0.25,0,0],[0.5,0,0],[0.75,0,0],[1,0,0],[1,0.25,0],[1,0.5,0],[1,0.75,0],[1,1,0],[0.75,1,0],[0.5,1,0],[0.25,1,0],[0,1,0],[0,0.75,0],[0,0.5,0],[0,0.25,0]];rounded=1;absoluteArcSize=1;arcSize=2;html=1;strokeColor=none;gradientColor=none;shadow=0;dashed=0;fontSize=20;fontColor=#9E9E9E;align=left;verticalAlign=top;spacing=10;spacingTop=-4;whiteSpace=wrap;fillColor=#EFEBE9;" parent="1" vertex="1">
          <mxGeometry x="181.5" y="425" width="139" height="110" as="geometry" />
        </mxCell>
        <mxCell id="ZOWR-ltlrKuSY-oQ_u5s-27" value="" style="group" parent="1" vertex="1" connectable="0">
          <mxGeometry x="-141.52" y="480" width="208.75" height="197" as="geometry" />
        </mxCell>
        <mxCell id="ZOWR-ltlrKuSY-oQ_u5s-22" value="" style="rounded=1;arcSize=10;strokeColor=none;fillColor=#DBDBDB;gradientColor=none;" parent="ZOWR-ltlrKuSY-oQ_u5s-27" vertex="1">
          <mxGeometry width="208.75" height="197" as="geometry" />
        </mxCell>
        <mxCell id="ZOWR-ltlrKuSY-oQ_u5s-18" value="Hello !!!" style="sketch=0;points=[[0,0,0],[0.25,0,0],[0.5,0,0],[0.75,0,0],[1,0,0],[1,0.25,0],[1,0.5,0],[1,0.75,0],[1,1,0],[0.75,1,0],[0.5,1,0],[0.25,1,0],[0,1,0],[0,0.75,0],[0,0.5,0],[0,0.25,0]];rounded=1;absoluteArcSize=1;arcSize=2;html=1;strokeColor=none;gradientColor=none;shadow=0;dashed=0;fontSize=20;fontColor=#9E9E9E;align=left;verticalAlign=top;spacing=10;spacingTop=-4;whiteSpace=wrap;fillColor=#EFEBE9;" parent="ZOWR-ltlrKuSY-oQ_u5s-27" vertex="1">
          <mxGeometry x="17.099999999999994" y="17" width="129" height="110" as="geometry" />
        </mxCell>
        <mxCell id="ZOWR-ltlrKuSY-oQ_u5s-19" value="" style="group;fontColor=#000000;" parent="ZOWR-ltlrKuSY-oQ_u5s-27" vertex="1" connectable="0">
          <mxGeometry x="68.75" y="67" width="120" height="83" as="geometry" />
        </mxCell>
        <mxCell id="ZOWR-ltlrKuSY-oQ_u5s-20" value="" style="sketch=0;pointerEvents=1;shadow=0;dashed=0;html=1;strokeColor=none;labelPosition=center;verticalLabelPosition=bottom;verticalAlign=top;outlineConnect=0;align=center;shape=mxgraph.office.security.key_permissions;fillColor=#7FBA42;" parent="ZOWR-ltlrKuSY-oQ_u5s-19" vertex="1">
          <mxGeometry x="22.5" width="25" height="53" as="geometry" />
        </mxCell>
        <mxCell id="ZOWR-ltlrKuSY-oQ_u5s-21" value="&lt;font color=&quot;#000000&quot;&gt;② 利用此Key加密&lt;/font&gt;" style="text;html=1;align=center;verticalAlign=middle;resizable=0;points=[];autosize=1;fontColor=#FFFFFF;fontSize=16;" parent="ZOWR-ltlrKuSY-oQ_u5s-19" vertex="1">
          <mxGeometry x="-40" y="53" width="150" height="30" as="geometry" />
        </mxCell>
        <mxCell id="ZOWR-ltlrKuSY-oQ_u5s-29" style="edgeStyle=orthogonalEdgeStyle;rounded=0;orthogonalLoop=1;jettySize=auto;html=1;exitX=1;exitY=0.5;exitDx=0;exitDy=0;entryX=0.5;entryY=1;entryDx=0;entryDy=0;shape=flexArrow;fillColor=#fad7ac;strokeColor=#b46504;" parent="1" source="ZOWR-ltlrKuSY-oQ_u5s-22" target="ZOWR-ltlrKuSY-oQ_u5s-1" edge="1">
          <mxGeometry relative="1" as="geometry" />
        </mxCell>
        <mxCell id="ZOWR-ltlrKuSY-oQ_u5s-30" value="③ 傳輸加密密文" style="text;html=1;align=center;verticalAlign=middle;resizable=0;points=[];autosize=1;fontColor=#000000;fontSize=16;" parent="1" vertex="1">
          <mxGeometry x="179.5" y="540" width="140" height="30" as="geometry" />
        </mxCell>
        <mxCell id="ZOWR-ltlrKuSY-oQ_u5s-31" value="" style="group" parent="1" vertex="1" connectable="0">
          <mxGeometry x="760" y="170" width="220" height="197" as="geometry" />
        </mxCell>
        <mxCell id="ZOWR-ltlrKuSY-oQ_u5s-32" value="" style="rounded=1;arcSize=10;strokeColor=none;fillColor=#DBDBDB;gradientColor=none;" parent="ZOWR-ltlrKuSY-oQ_u5s-31" vertex="1">
          <mxGeometry width="208.75" height="197" as="geometry" />
        </mxCell>
        <mxCell id="ZOWR-ltlrKuSY-oQ_u5s-33" value="359d296332&lt;br&gt;976e5ad96b&lt;br&gt;1ef4e0b3208&lt;br&gt;508281f39" style="sketch=0;points=[[0,0,0],[0.25,0,0],[0.5,0,0],[0.75,0,0],[1,0,0],[1,0.25,0],[1,0.5,0],[1,0.75,0],[1,1,0],[0.75,1,0],[0.5,1,0],[0.25,1,0],[0,1,0],[0,0.75,0],[0,0.5,0],[0,0.25,0]];rounded=1;absoluteArcSize=1;arcSize=2;html=1;strokeColor=none;gradientColor=none;shadow=0;dashed=0;fontSize=20;fontColor=#9E9E9E;align=left;verticalAlign=top;spacing=10;spacingTop=-4;whiteSpace=wrap;fillColor=#EFEBE9;" parent="ZOWR-ltlrKuSY-oQ_u5s-31" vertex="1">
          <mxGeometry x="17.099999999999994" y="17" width="129" height="110" as="geometry" />
        </mxCell>
        <mxCell id="ZOWR-ltlrKuSY-oQ_u5s-39" value="" style="group" parent="ZOWR-ltlrKuSY-oQ_u5s-31" vertex="1" connectable="0">
          <mxGeometry x="77" y="90.75" width="120" height="83" as="geometry" />
        </mxCell>
        <mxCell id="ZOWR-ltlrKuSY-oQ_u5s-40" value="" style="sketch=0;pointerEvents=1;shadow=0;dashed=0;html=1;strokeColor=none;labelPosition=center;verticalLabelPosition=bottom;verticalAlign=top;outlineConnect=0;align=center;shape=mxgraph.office.security.key_permissions;fillColor=#DA4026;" parent="ZOWR-ltlrKuSY-oQ_u5s-39" vertex="1">
          <mxGeometry x="22.5" width="25" height="53" as="geometry" />
        </mxCell>
        <mxCell id="ZOWR-ltlrKuSY-oQ_u5s-41" value="④ 利用解密Key解密" style="text;html=1;align=center;verticalAlign=middle;resizable=0;points=[];autosize=1;fontColor=#000000;fontSize=16;" parent="ZOWR-ltlrKuSY-oQ_u5s-39" vertex="1">
          <mxGeometry x="-50" y="53" width="170" height="30" as="geometry" />
        </mxCell>
        <mxCell id="ZOWR-ltlrKuSY-oQ_u5s-42" value="Hello !!!" style="sketch=0;points=[[0,0,0],[0.25,0,0],[0.5,0,0],[0.75,0,0],[1,0,0],[1,0.25,0],[1,0.5,0],[1,0.75,0],[1,1,0],[0.75,1,0],[0.5,1,0],[0.25,1,0],[0,1,0],[0,0.75,0],[0,0.5,0],[0,0.25,0]];rounded=1;absoluteArcSize=1;arcSize=2;html=1;strokeColor=none;gradientColor=none;shadow=0;dashed=0;fontSize=20;fontColor=#9E9E9E;align=left;verticalAlign=top;spacing=10;spacingTop=-4;whiteSpace=wrap;fillColor=#EFEBE9;" parent="1" vertex="1">
          <mxGeometry x="1190" y="213.5" width="129" height="110" as="geometry" />
        </mxCell>
        <mxCell id="ZOWR-ltlrKuSY-oQ_u5s-43" style="edgeStyle=orthogonalEdgeStyle;rounded=0;orthogonalLoop=1;jettySize=auto;html=1;exitX=1;exitY=0.5;exitDx=0;exitDy=0;entryX=0;entryY=0.5;entryDx=0;entryDy=0;entryPerimeter=0;shape=flexArrow;fillColor=#1ba1e2;strokeColor=#006EAF;" parent="1" source="ZOWR-ltlrKuSY-oQ_u5s-32" target="ZOWR-ltlrKuSY-oQ_u5s-42" edge="1">
          <mxGeometry relative="1" as="geometry" />
        </mxCell>
        <mxCell id="ZOWR-ltlrKuSY-oQ_u5s-44" value="《非對稱加解密》" style="text;html=1;align=center;verticalAlign=middle;resizable=0;points=[];autosize=1;strokeColor=none;fillColor=none;fontSize=32;" parent="1" vertex="1">
          <mxGeometry x="1080" y="890" width="280" height="50" as="geometry" />
        </mxCell>
        <mxCell id="ZOWR-ltlrKuSY-oQ_u5s-48" value="" style="group" parent="1" vertex="1" connectable="0">
          <mxGeometry x="169.99999999999997" y="800" width="208.75" height="197" as="geometry" />
        </mxCell>
        <mxCell id="ZOWR-ltlrKuSY-oQ_u5s-49" value="" style="rounded=1;arcSize=10;strokeColor=none;fillColor=#DBDBDB;gradientColor=none;" parent="ZOWR-ltlrKuSY-oQ_u5s-48" vertex="1">
          <mxGeometry width="208.75" height="197" as="geometry" />
        </mxCell>
        <mxCell id="ZOWR-ltlrKuSY-oQ_u5s-50" value="359d296332&lt;br&gt;976e5ad96b&lt;br&gt;1ef4e0b3208&lt;br&gt;508281f39" style="sketch=0;points=[[0,0,0],[0.25,0,0],[0.5,0,0],[0.75,0,0],[1,0,0],[1,0.25,0],[1,0.5,0],[1,0.75,0],[1,1,0],[0.75,1,0],[0.5,1,0],[0.25,1,0],[0,1,0],[0,0.75,0],[0,0.5,0],[0,0.25,0]];rounded=1;absoluteArcSize=1;arcSize=2;html=1;strokeColor=none;gradientColor=none;shadow=0;dashed=0;fontSize=20;fontColor=#9E9E9E;align=left;verticalAlign=top;spacing=10;spacingTop=-4;whiteSpace=wrap;fillColor=#EFEBE9;" parent="ZOWR-ltlrKuSY-oQ_u5s-48" vertex="1">
          <mxGeometry x="17.099999999999994" y="17" width="129" height="110" as="geometry" />
        </mxCell>
        <mxCell id="ZOWR-ltlrKuSY-oQ_u5s-51" value="" style="group;fontColor=#000000;" parent="ZOWR-ltlrKuSY-oQ_u5s-48" vertex="1" connectable="0">
          <mxGeometry x="80" y="80" width="120" height="83" as="geometry" />
        </mxCell>
        <mxCell id="ZOWR-ltlrKuSY-oQ_u5s-52" value="" style="sketch=0;pointerEvents=1;shadow=0;dashed=0;html=1;strokeColor=none;labelPosition=center;verticalLabelPosition=bottom;verticalAlign=top;outlineConnect=0;align=center;shape=mxgraph.office.security.key_permissions;fillColor=#7FBA42;" parent="ZOWR-ltlrKuSY-oQ_u5s-51" vertex="1">
          <mxGeometry x="22.5" width="25" height="53" as="geometry" />
        </mxCell>
        <mxCell id="ZOWR-ltlrKuSY-oQ_u5s-53" value="&lt;font color=&quot;#000000&quot;&gt;② 利用此Key解密&lt;/font&gt;" style="text;html=1;align=center;verticalAlign=middle;resizable=0;points=[];autosize=1;fontColor=#FFFFFF;fontSize=16;" parent="ZOWR-ltlrKuSY-oQ_u5s-51" vertex="1">
          <mxGeometry x="-40" y="53" width="150" height="30" as="geometry" />
        </mxCell>
        <mxCell id="ZOWR-ltlrKuSY-oQ_u5s-55" style="edgeStyle=orthogonalEdgeStyle;rounded=0;orthogonalLoop=1;jettySize=auto;html=1;exitX=0.5;exitY=1;exitDx=0;exitDy=0;entryX=0;entryY=0.5;entryDx=0;entryDy=0;shape=flexArrow;fillColor=#e51400;strokeColor=#B20000;" parent="1" source="ZOWR-ltlrKuSY-oQ_u5s-22" target="ZOWR-ltlrKuSY-oQ_u5s-49" edge="1">
          <mxGeometry relative="1" as="geometry" />
        </mxCell>
        <mxCell id="ZOWR-ltlrKuSY-oQ_u5s-56" value="" style="shape=mxgraph.mockup.markup.redX;fillColor=#ff0000;html=1;shadow=0;whiteSpace=wrap;strokeColor=none;" parent="1" vertex="1">
          <mxGeometry x="670" y="855" width="80" height="87" as="geometry" />
        </mxCell>
        <mxCell id="ZOWR-ltlrKuSY-oQ_u5s-57" style="edgeStyle=orthogonalEdgeStyle;rounded=0;orthogonalLoop=1;jettySize=auto;html=1;fillColor=#e51400;strokeColor=#B20000;shape=flexArrow;" parent="1" source="ZOWR-ltlrKuSY-oQ_u5s-49" target="ZOWR-ltlrKuSY-oQ_u5s-56" edge="1">
          <mxGeometry relative="1" as="geometry" />
        </mxCell>
        <mxCell id="ZOWR-ltlrKuSY-oQ_u5s-58" value="如果Key被偷走" style="text;html=1;align=center;verticalAlign=middle;resizable=0;points=[];autosize=1;strokeColor=none;fillColor=none;fontColor=#000000;fontSize=20;" parent="1" vertex="1">
          <mxGeometry x="-20" y="850" width="160" height="40" as="geometry" />
        </mxCell>
      </root>
    </mxGraphModel>
  </diagram>
  <diagram id="7PAhWuZWVB-mHXt4GYme" name="第6頁">
    <mxGraphModel dx="5352" dy="1322" grid="1" gridSize="10" guides="1" tooltips="1" connect="1" arrows="1" fold="1" page="1" pageScale="1" pageWidth="3300" pageHeight="2339" math="0" shadow="0">
      <root>
        <mxCell id="0" />
        <mxCell id="1" parent="0" />
        <mxCell id="kOK2Pzuwjdq8eEW6KuYE-44" style="edgeStyle=orthogonalEdgeStyle;rounded=0;orthogonalLoop=1;jettySize=auto;html=1;entryX=0.25;entryY=1;entryDx=0;entryDy=0;fillColor=#60a917;strokeColor=#2D7600;shape=flexArrow;" parent="1" source="50h81I3KnVxtqPMCvxmG-1" target="kOK2Pzuwjdq8eEW6KuYE-24" edge="1">
          <mxGeometry relative="1" as="geometry" />
        </mxCell>
        <mxCell id="50h81I3KnVxtqPMCvxmG-1" value="" style="image;sketch=0;aspect=fixed;html=1;points=[];align=center;fontSize=12;image=img/lib/mscae/Person.svg;" parent="1" vertex="1">
          <mxGeometry x="-130" y="390" width="88.8" height="120" as="geometry" />
        </mxCell>
        <mxCell id="kOK2Pzuwjdq8eEW6KuYE-2" value="" style="group;fillColor=none;container=0;" parent="1" vertex="1" connectable="0">
          <mxGeometry x="790" y="270" width="199.5" height="199.5" as="geometry" />
        </mxCell>
        <mxCell id="kOK2Pzuwjdq8eEW6KuYE-18" value="" style="group" parent="1" vertex="1" connectable="0">
          <mxGeometry x="665" y="20" width="125" height="83" as="geometry" />
        </mxCell>
        <mxCell id="kOK2Pzuwjdq8eEW6KuYE-19" value="" style="sketch=0;pointerEvents=1;shadow=0;dashed=0;html=1;strokeColor=none;labelPosition=center;verticalLabelPosition=bottom;verticalAlign=top;outlineConnect=0;align=center;shape=mxgraph.office.security.key_permissions;fillColor=#7FBA42;" parent="kOK2Pzuwjdq8eEW6KuYE-18" vertex="1">
          <mxGeometry x="32.5" width="25" height="53" as="geometry" />
        </mxCell>
        <mxCell id="kOK2Pzuwjdq8eEW6KuYE-20" value="① 真．公鑰 (被偷)" style="text;html=1;align=center;verticalAlign=middle;resizable=0;points=[];autosize=1;fontColor=#000000;fontSize=16;" parent="kOK2Pzuwjdq8eEW6KuYE-18" vertex="1">
          <mxGeometry x="-35" y="53" width="160" height="30" as="geometry" />
        </mxCell>
        <mxCell id="kOK2Pzuwjdq8eEW6KuYE-37" style="edgeStyle=orthogonalEdgeStyle;rounded=0;orthogonalLoop=1;jettySize=auto;html=1;exitX=0.5;exitY=0;exitDx=0;exitDy=0;entryX=1;entryY=0.5;entryDx=0;entryDy=0;shape=flexArrow;fillColor=#60a917;strokeColor=#2D7600;" parent="1" source="kOK2Pzuwjdq8eEW6KuYE-1" target="kOK2Pzuwjdq8eEW6KuYE-24" edge="1">
          <mxGeometry relative="1" as="geometry" />
        </mxCell>
        <mxCell id="kOK2Pzuwjdq8eEW6KuYE-36" value="" style="group;fillColor=none;" parent="1" vertex="1" connectable="0">
          <mxGeometry x="290" y="10" width="199.5" height="199.5" as="geometry" />
        </mxCell>
        <mxCell id="kOK2Pzuwjdq8eEW6KuYE-24" value="" style="rounded=1;arcSize=10;strokeColor=#3700CC;fillColor=#6a00ff;container=0;fontColor=#ffffff;" parent="kOK2Pzuwjdq8eEW6KuYE-36" vertex="1">
          <mxGeometry width="199.5" height="199.5" as="geometry" />
        </mxCell>
        <mxCell id="kOK2Pzuwjdq8eEW6KuYE-31" value="假．私鑰" style="text;html=1;align=center;verticalAlign=middle;resizable=0;points=[];autosize=1;fontColor=#000000;fontSize=16;container=0;" parent="kOK2Pzuwjdq8eEW6KuYE-36" vertex="1">
          <mxGeometry x="99.5" y="70" width="90" height="30" as="geometry" />
        </mxCell>
        <mxCell id="kOK2Pzuwjdq8eEW6KuYE-21" value="" style="image;aspect=fixed;perimeter=ellipsePerimeter;html=1;align=center;shadow=0;dashed=0;fontColor=#4277BB;labelBackgroundColor=default;fontSize=12;spacingTop=3;image=img/lib/ibm/blockchain/key_management.svg;container=0;" parent="kOK2Pzuwjdq8eEW6KuYE-36" vertex="1">
          <mxGeometry x="114.5" y="10" width="60" height="60" as="geometry" />
        </mxCell>
        <mxCell id="kOK2Pzuwjdq8eEW6KuYE-28" value="假．公鑰" style="text;html=1;align=center;verticalAlign=middle;resizable=0;points=[];autosize=1;fontColor=#000000;fontSize=16;container=0;" parent="kOK2Pzuwjdq8eEW6KuYE-36" vertex="1">
          <mxGeometry x="9.5" y="70" width="90" height="30" as="geometry" />
        </mxCell>
        <mxCell id="kOK2Pzuwjdq8eEW6KuYE-22" value="" style="image;aspect=fixed;perimeter=ellipsePerimeter;html=1;align=center;shadow=0;dashed=0;fontColor=#4277BB;labelBackgroundColor=default;fontSize=12;spacingTop=3;image=img/lib/ibm/vpc/Key.svg;container=0;" parent="kOK2Pzuwjdq8eEW6KuYE-36" vertex="1">
          <mxGeometry x="24.5" y="10" width="60" height="60" as="geometry" />
        </mxCell>
        <mxCell id="kOK2Pzuwjdq8eEW6KuYE-6" value="" style="shape=actor;whiteSpace=wrap;html=1;container=0;" parent="kOK2Pzuwjdq8eEW6KuYE-36" vertex="1">
          <mxGeometry x="79.75" y="120" width="40" height="60" as="geometry" />
        </mxCell>
        <mxCell id="kOK2Pzuwjdq8eEW6KuYE-38" style="edgeStyle=orthogonalEdgeStyle;rounded=0;orthogonalLoop=1;jettySize=auto;html=1;exitX=0;exitY=0.5;exitDx=0;exitDy=0;fillColor=#60a917;strokeColor=#2D7600;shape=flexArrow;" parent="1" source="kOK2Pzuwjdq8eEW6KuYE-24" target="50h81I3KnVxtqPMCvxmG-1" edge="1">
          <mxGeometry relative="1" as="geometry" />
        </mxCell>
        <mxCell id="kOK2Pzuwjdq8eEW6KuYE-42" value="" style="group" parent="1" vertex="1" connectable="0">
          <mxGeometry x="80" y="13" width="110" height="90" as="geometry" />
        </mxCell>
        <mxCell id="kOK2Pzuwjdq8eEW6KuYE-40" value="" style="image;aspect=fixed;perimeter=ellipsePerimeter;html=1;align=center;shadow=0;dashed=0;fontColor=#4277BB;labelBackgroundColor=default;fontSize=12;spacingTop=3;image=img/lib/ibm/vpc/Key.svg;container=0;" parent="kOK2Pzuwjdq8eEW6KuYE-42" vertex="1">
          <mxGeometry x="25" width="60" height="60" as="geometry" />
        </mxCell>
        <mxCell id="kOK2Pzuwjdq8eEW6KuYE-41" value="&lt;font color=&quot;#000000&quot;&gt;② 複製假．公鑰&lt;/font&gt;" style="text;html=1;align=center;verticalAlign=middle;resizable=0;points=[];autosize=1;strokeColor=none;fillColor=none;" parent="kOK2Pzuwjdq8eEW6KuYE-42" vertex="1">
          <mxGeometry y="60" width="110" height="30" as="geometry" />
        </mxCell>
        <mxCell id="6AsipNwf1LZRgtjxWFOR-7" value="" style="rounded=1;arcSize=10;strokeColor=none;fillColor=#DBDBDB;gradientColor=none;" parent="1" vertex="1">
          <mxGeometry x="-41.2" y="240" width="211.2" height="190" as="geometry" />
        </mxCell>
        <mxCell id="6AsipNwf1LZRgtjxWFOR-8" value="I love you !" style="whiteSpace=wrap;html=1;shape=mxgraph.basic.oval_callout" parent="1" vertex="1">
          <mxGeometry x="-41.2" y="330" width="131.2" height="90" as="geometry" />
        </mxCell>
        <mxCell id="6AsipNwf1LZRgtjxWFOR-10" value="" style="group" parent="1" vertex="1" connectable="0">
          <mxGeometry x="50" y="250" width="120" height="90" as="geometry" />
        </mxCell>
        <mxCell id="6AsipNwf1LZRgtjxWFOR-11" value="" style="image;aspect=fixed;perimeter=ellipsePerimeter;html=1;align=center;shadow=0;dashed=0;fontColor=#4277BB;labelBackgroundColor=default;fontSize=12;spacingTop=3;image=img/lib/ibm/vpc/Key.svg;container=0;" parent="6AsipNwf1LZRgtjxWFOR-10" vertex="1">
          <mxGeometry x="25" width="60" height="60" as="geometry" />
        </mxCell>
        <mxCell id="6AsipNwf1LZRgtjxWFOR-12" value="&lt;font color=&quot;#000000&quot;&gt;③ 使用假．公鑰加密&lt;/font&gt;" style="text;html=1;align=center;verticalAlign=middle;resizable=0;points=[];autosize=1;strokeColor=none;fillColor=none;" parent="6AsipNwf1LZRgtjxWFOR-10" vertex="1">
          <mxGeometry x="-10" y="60" width="130" height="30" as="geometry" />
        </mxCell>
        <mxCell id="6AsipNwf1LZRgtjxWFOR-28" style="edgeStyle=orthogonalEdgeStyle;rounded=0;orthogonalLoop=1;jettySize=auto;html=1;exitX=0.5;exitY=1;exitDx=0;exitDy=0;entryX=0.5;entryY=0;entryDx=0;entryDy=0;shape=flexArrow;fillColor=#e51400;strokeColor=#B20000;" parent="1" source="kOK2Pzuwjdq8eEW6KuYE-24" target="6AsipNwf1LZRgtjxWFOR-13" edge="1">
          <mxGeometry relative="1" as="geometry" />
        </mxCell>
        <mxCell id="6AsipNwf1LZRgtjxWFOR-29" value="" style="group" parent="1" vertex="1" connectable="0">
          <mxGeometry x="284.15" y="500" width="211.2" height="190" as="geometry" />
        </mxCell>
        <mxCell id="6AsipNwf1LZRgtjxWFOR-13" value="" style="rounded=1;arcSize=10;strokeColor=#3700CC;fillColor=#6a00ff;fontColor=#ffffff;" parent="6AsipNwf1LZRgtjxWFOR-29" vertex="1">
          <mxGeometry width="211.2" height="190" as="geometry" />
        </mxCell>
        <mxCell id="6AsipNwf1LZRgtjxWFOR-14" value="a3635e22aa30d&lt;br&gt;b3b91093d6387ae&lt;br&gt;9eb470fd7022" style="whiteSpace=wrap;html=1;shape=mxgraph.basic.oval_callout" parent="6AsipNwf1LZRgtjxWFOR-29" vertex="1">
          <mxGeometry y="90" width="131.2" height="90" as="geometry" />
        </mxCell>
        <mxCell id="6AsipNwf1LZRgtjxWFOR-15" value="" style="group" parent="6AsipNwf1LZRgtjxWFOR-29" vertex="1" connectable="0">
          <mxGeometry x="91.19999999999999" y="10" width="120" height="90" as="geometry" />
        </mxCell>
        <mxCell id="6AsipNwf1LZRgtjxWFOR-17" value="&lt;font color=&quot;#000000&quot;&gt;④ 使用假．私鑰解密&lt;/font&gt;" style="text;html=1;align=center;verticalAlign=middle;resizable=0;points=[];autosize=1;strokeColor=none;fillColor=none;" parent="6AsipNwf1LZRgtjxWFOR-15" vertex="1">
          <mxGeometry x="-10" y="60" width="130" height="30" as="geometry" />
        </mxCell>
        <mxCell id="6AsipNwf1LZRgtjxWFOR-25" value="" style="image;aspect=fixed;perimeter=ellipsePerimeter;html=1;align=center;shadow=0;dashed=0;fontColor=#4277BB;labelBackgroundColor=default;fontSize=12;spacingTop=3;image=img/lib/ibm/blockchain/key_management.svg;" parent="6AsipNwf1LZRgtjxWFOR-15" vertex="1">
          <mxGeometry x="30" width="60" height="60" as="geometry" />
        </mxCell>
        <mxCell id="6AsipNwf1LZRgtjxWFOR-43" value="" style="group" parent="1" vertex="1" connectable="0">
          <mxGeometry x="284.15" y="930" width="211.2" height="190" as="geometry" />
        </mxCell>
        <mxCell id="6AsipNwf1LZRgtjxWFOR-31" value="" style="rounded=1;arcSize=10;strokeColor=#3700CC;fillColor=#6a00ff;fontColor=#ffffff;" parent="6AsipNwf1LZRgtjxWFOR-43" vertex="1">
          <mxGeometry width="211.2" height="190" as="geometry" />
        </mxCell>
        <mxCell id="6AsipNwf1LZRgtjxWFOR-39" value="" style="group" parent="6AsipNwf1LZRgtjxWFOR-43" vertex="1" connectable="0">
          <mxGeometry x="81.19999999999999" y="7" width="130" height="83" as="geometry" />
        </mxCell>
        <mxCell id="6AsipNwf1LZRgtjxWFOR-40" value="" style="sketch=0;pointerEvents=1;shadow=0;dashed=0;html=1;strokeColor=none;labelPosition=center;verticalLabelPosition=bottom;verticalAlign=top;outlineConnect=0;align=center;shape=mxgraph.office.security.key_permissions;fillColor=#7FBA42;" parent="6AsipNwf1LZRgtjxWFOR-39" vertex="1">
          <mxGeometry x="32.5" width="25" height="53" as="geometry" />
        </mxCell>
        <mxCell id="6AsipNwf1LZRgtjxWFOR-41" value="⑤ 使用真．公鑰加密" style="text;html=1;align=center;verticalAlign=middle;resizable=0;points=[];autosize=1;fontColor=#000000;fontSize=16;" parent="6AsipNwf1LZRgtjxWFOR-39" vertex="1">
          <mxGeometry x="-40" y="53" width="170" height="30" as="geometry" />
        </mxCell>
        <mxCell id="6AsipNwf1LZRgtjxWFOR-32" value="I love you !" style="whiteSpace=wrap;html=1;shape=mxgraph.basic.oval_callout" parent="6AsipNwf1LZRgtjxWFOR-43" vertex="1">
          <mxGeometry y="90" width="131.2" height="90" as="geometry" />
        </mxCell>
        <mxCell id="6AsipNwf1LZRgtjxWFOR-44" style="edgeStyle=orthogonalEdgeStyle;rounded=0;orthogonalLoop=1;jettySize=auto;html=1;exitX=0.5;exitY=1;exitDx=0;exitDy=0;entryX=0.5;entryY=0;entryDx=0;entryDy=0;fillColor=#e51400;strokeColor=#B20000;shape=flexArrow;" parent="1" source="6AsipNwf1LZRgtjxWFOR-13" target="6AsipNwf1LZRgtjxWFOR-31" edge="1">
          <mxGeometry relative="1" as="geometry" />
        </mxCell>
        <mxCell id="6AsipNwf1LZRgtjxWFOR-45" style="edgeStyle=orthogonalEdgeStyle;rounded=0;orthogonalLoop=1;jettySize=auto;html=1;exitX=1;exitY=0.5;exitDx=0;exitDy=0;entryX=0.5;entryY=1;entryDx=0;entryDy=0;shape=flexArrow;fillColor=#60a917;strokeColor=#2D7600;" parent="1" source="6AsipNwf1LZRgtjxWFOR-31" target="kOK2Pzuwjdq8eEW6KuYE-1" edge="1">
          <mxGeometry relative="1" as="geometry" />
        </mxCell>
        <mxCell id="6AsipNwf1LZRgtjxWFOR-52" value="" style="group" parent="1" vertex="1" connectable="0">
          <mxGeometry x="1180" y="274.75" width="230" height="190" as="geometry" />
        </mxCell>
        <mxCell id="6AsipNwf1LZRgtjxWFOR-53" value="" style="rounded=1;arcSize=10;strokeColor=#36393d;fillColor=#cce5ff;" parent="6AsipNwf1LZRgtjxWFOR-52" vertex="1">
          <mxGeometry width="211.2" height="190" as="geometry" />
        </mxCell>
        <mxCell id="6AsipNwf1LZRgtjxWFOR-57" value="a3635e22aa30d&lt;br&gt;b3b91093d6387ae&lt;br&gt;9eb470fd7022" style="whiteSpace=wrap;html=1;shape=mxgraph.basic.oval_callout" parent="6AsipNwf1LZRgtjxWFOR-52" vertex="1">
          <mxGeometry y="90" width="131.2" height="90" as="geometry" />
        </mxCell>
        <mxCell id="6AsipNwf1LZRgtjxWFOR-59" value="" style="group" parent="6AsipNwf1LZRgtjxWFOR-52" vertex="1" connectable="0">
          <mxGeometry x="81.2" y="7" width="130" height="83" as="geometry" />
        </mxCell>
        <mxCell id="6AsipNwf1LZRgtjxWFOR-60" value="" style="sketch=0;pointerEvents=1;shadow=0;dashed=0;html=1;strokeColor=none;labelPosition=center;verticalLabelPosition=bottom;verticalAlign=top;outlineConnect=0;align=center;shape=mxgraph.office.security.key_permissions;fillColor=#DA4026;container=0;" parent="6AsipNwf1LZRgtjxWFOR-59" vertex="1">
          <mxGeometry x="32.5" width="25" height="53" as="geometry" />
        </mxCell>
        <mxCell id="6AsipNwf1LZRgtjxWFOR-61" value="⑥ 使用真．私鑰解密" style="text;html=1;align=center;verticalAlign=middle;resizable=0;points=[];autosize=1;fontColor=#000000;fontSize=16;" parent="6AsipNwf1LZRgtjxWFOR-59" vertex="1">
          <mxGeometry x="-40" y="53" width="170" height="30" as="geometry" />
        </mxCell>
        <mxCell id="6AsipNwf1LZRgtjxWFOR-58" style="edgeStyle=orthogonalEdgeStyle;rounded=0;orthogonalLoop=1;jettySize=auto;html=1;exitX=1;exitY=0.5;exitDx=0;exitDy=0;entryX=0;entryY=0.5;entryDx=0;entryDy=0;fillColor=#60a917;strokeColor=#2D7600;shape=flexArrow;" parent="1" source="kOK2Pzuwjdq8eEW6KuYE-1" target="6AsipNwf1LZRgtjxWFOR-53" edge="1">
          <mxGeometry relative="1" as="geometry" />
        </mxCell>
        <mxCell id="kOK2Pzuwjdq8eEW6KuYE-1" value="" style="rounded=1;arcSize=10;strokeColor=#36393d;fillColor=#cce5ff;" parent="1" vertex="1">
          <mxGeometry x="790" y="270" width="199.5" height="199.5" as="geometry" />
        </mxCell>
        <mxCell id="TjTUMNAdYjM0SU0AlGL1-1" value="" style="image;aspect=fixed;perimeter=ellipsePerimeter;html=1;align=center;shadow=0;dashed=0;spacingTop=3;image=img/lib/active_directory/web_server.svg;" parent="1" vertex="1">
          <mxGeometry x="869.5" y="377" width="62" height="77.5" as="geometry" />
        </mxCell>
        <mxCell id="2OxlzkeLcsmsynFNIYQg-4" value="" style="group" parent="1" vertex="1" connectable="0">
          <mxGeometry x="799.5" y="287" width="90" height="83" as="geometry" />
        </mxCell>
        <mxCell id="2OxlzkeLcsmsynFNIYQg-2" value="" style="sketch=0;pointerEvents=1;shadow=0;dashed=0;html=1;strokeColor=none;labelPosition=center;verticalLabelPosition=bottom;verticalAlign=top;outlineConnect=0;align=center;shape=mxgraph.office.security.key_permissions;fillColor=#7FBA42;" parent="2OxlzkeLcsmsynFNIYQg-4" vertex="1">
          <mxGeometry x="32.5" width="25" height="53" as="geometry" />
        </mxCell>
        <mxCell id="2OxlzkeLcsmsynFNIYQg-3" value="真．公鑰" style="text;html=1;align=center;verticalAlign=middle;resizable=0;points=[];autosize=1;fontColor=#000000;fontSize=16;" parent="2OxlzkeLcsmsynFNIYQg-4" vertex="1">
          <mxGeometry y="53" width="90" height="30" as="geometry" />
        </mxCell>
        <mxCell id="HIocM94UIAbv5Bd06JF9-4" value="" style="group" parent="1" vertex="1" connectable="0">
          <mxGeometry x="889.5" y="287" width="90" height="83" as="geometry" />
        </mxCell>
        <mxCell id="HIocM94UIAbv5Bd06JF9-2" value="" style="sketch=0;pointerEvents=1;shadow=0;dashed=0;html=1;strokeColor=none;labelPosition=center;verticalLabelPosition=bottom;verticalAlign=top;outlineConnect=0;align=center;shape=mxgraph.office.security.key_permissions;fillColor=#DA4026;container=0;" parent="HIocM94UIAbv5Bd06JF9-4" vertex="1">
          <mxGeometry x="32.5" width="25" height="53" as="geometry" />
        </mxCell>
        <mxCell id="HIocM94UIAbv5Bd06JF9-3" value="真．私鑰" style="text;html=1;align=center;verticalAlign=middle;resizable=0;points=[];autosize=1;fontColor=#000000;fontSize=16;" parent="HIocM94UIAbv5Bd06JF9-4" vertex="1">
          <mxGeometry y="53" width="90" height="30" as="geometry" />
        </mxCell>
        <mxCell id="6AsipNwf1LZRgtjxWFOR-62" value="" style="group" parent="1" vertex="1" connectable="0">
          <mxGeometry x="1580" y="274.75" width="230" height="190" as="geometry" />
        </mxCell>
        <mxCell id="6AsipNwf1LZRgtjxWFOR-63" value="" style="rounded=1;arcSize=10;strokeColor=#36393d;fillColor=#cce5ff;" parent="6AsipNwf1LZRgtjxWFOR-62" vertex="1">
          <mxGeometry width="211.2" height="190" as="geometry" />
        </mxCell>
        <mxCell id="6AsipNwf1LZRgtjxWFOR-64" value="I love you !" style="whiteSpace=wrap;html=1;shape=mxgraph.basic.oval_callout" parent="6AsipNwf1LZRgtjxWFOR-62" vertex="1">
          <mxGeometry x="40" y="55.25" width="131.2" height="90" as="geometry" />
        </mxCell>
        <mxCell id="6AsipNwf1LZRgtjxWFOR-68" style="edgeStyle=orthogonalEdgeStyle;rounded=0;orthogonalLoop=1;jettySize=auto;html=1;exitX=1;exitY=0.5;exitDx=0;exitDy=0;entryX=0;entryY=0.5;entryDx=0;entryDy=0;shape=flexArrow;fillColor=#60a917;strokeColor=#2D7600;" parent="1" source="6AsipNwf1LZRgtjxWFOR-53" target="6AsipNwf1LZRgtjxWFOR-63" edge="1">
          <mxGeometry relative="1" as="geometry" />
        </mxCell>
        <mxCell id="6AsipNwf1LZRgtjxWFOR-70" value="內容被看光光" style="whiteSpace=wrap;html=1;shape=mxgraph.basic.oval_callout" parent="1" vertex="1">
          <mxGeometry x="480" y="410" width="140" height="100" as="geometry" />
        </mxCell>
        <mxCell id="6AsipNwf1LZRgtjxWFOR-71" value="也可以偷偷改訊息" style="whiteSpace=wrap;html=1;shape=mxgraph.basic.oval_callout" parent="1" vertex="1">
          <mxGeometry x="480" y="840" width="140" height="100" as="geometry" />
        </mxCell>
        <mxCell id="6AsipNwf1LZRgtjxWFOR-72" value="MITM - Man-in-the-middle attack (中間人攻擊)" style="text;html=1;align=center;verticalAlign=middle;resizable=0;points=[];autosize=1;strokeColor=none;fillColor=none;fontSize=30;" parent="1" vertex="1">
          <mxGeometry x="1150" y="1020" width="640" height="50" as="geometry" />
        </mxCell>
      </root>
    </mxGraphModel>
  </diagram>
  <diagram id="aY4xUTpQohijsWGuug0z" name="第7頁">
    <mxGraphModel dx="4507" dy="778" grid="1" gridSize="10" guides="1" tooltips="1" connect="1" arrows="1" fold="1" page="1" pageScale="1" pageWidth="3300" pageHeight="2339" math="0" shadow="0">
      <root>
        <mxCell id="0" />
        <mxCell id="1" parent="0" />
        <mxCell id="4JTxF8o2_a0MrCQ-RtNS-10" value="" style="group" vertex="1" connectable="0" parent="1">
          <mxGeometry x="590" y="740" width="199.5" height="199.5" as="geometry" />
        </mxCell>
        <mxCell id="4JTxF8o2_a0MrCQ-RtNS-1" value="" style="group;fillColor=none;container=0;" vertex="1" connectable="0" parent="4JTxF8o2_a0MrCQ-RtNS-10">
          <mxGeometry width="199.5" height="199.5" as="geometry" />
        </mxCell>
        <mxCell id="4JTxF8o2_a0MrCQ-RtNS-2" value="" style="rounded=1;arcSize=10;strokeColor=#36393d;fillColor=#cce5ff;" vertex="1" parent="4JTxF8o2_a0MrCQ-RtNS-10">
          <mxGeometry width="199.5" height="199.5" as="geometry" />
        </mxCell>
        <mxCell id="4JTxF8o2_a0MrCQ-RtNS-3" value="" style="image;aspect=fixed;perimeter=ellipsePerimeter;html=1;align=center;shadow=0;dashed=0;spacingTop=3;image=img/lib/active_directory/web_server.svg;" vertex="1" parent="4JTxF8o2_a0MrCQ-RtNS-10">
          <mxGeometry x="79.5" y="107" width="62" height="77.5" as="geometry" />
        </mxCell>
        <mxCell id="4JTxF8o2_a0MrCQ-RtNS-4" value="" style="group" vertex="1" connectable="0" parent="4JTxF8o2_a0MrCQ-RtNS-10">
          <mxGeometry x="9.5" y="17" width="95" height="83" as="geometry" />
        </mxCell>
        <mxCell id="4JTxF8o2_a0MrCQ-RtNS-5" value="" style="sketch=0;pointerEvents=1;shadow=0;dashed=0;html=1;strokeColor=none;labelPosition=center;verticalLabelPosition=bottom;verticalAlign=top;outlineConnect=0;align=center;shape=mxgraph.office.security.key_permissions;fillColor=#7FBA42;" vertex="1" parent="4JTxF8o2_a0MrCQ-RtNS-4">
          <mxGeometry x="32.5" width="25" height="53" as="geometry" />
        </mxCell>
        <mxCell id="4JTxF8o2_a0MrCQ-RtNS-6" value="個人公鑰" style="text;html=1;align=center;verticalAlign=middle;resizable=0;points=[];autosize=1;fontColor=#000000;fontSize=16;" vertex="1" parent="4JTxF8o2_a0MrCQ-RtNS-4">
          <mxGeometry y="53" width="90" height="30" as="geometry" />
        </mxCell>
        <mxCell id="4JTxF8o2_a0MrCQ-RtNS-7" value="" style="group" vertex="1" connectable="0" parent="4JTxF8o2_a0MrCQ-RtNS-10">
          <mxGeometry x="99.5" y="17" width="95" height="83" as="geometry" />
        </mxCell>
        <mxCell id="4JTxF8o2_a0MrCQ-RtNS-8" value="" style="sketch=0;pointerEvents=1;shadow=0;dashed=0;html=1;strokeColor=none;labelPosition=center;verticalLabelPosition=bottom;verticalAlign=top;outlineConnect=0;align=center;shape=mxgraph.office.security.key_permissions;fillColor=#DA4026;container=0;" vertex="1" parent="4JTxF8o2_a0MrCQ-RtNS-7">
          <mxGeometry x="32.5" width="25" height="53" as="geometry" />
        </mxCell>
        <mxCell id="4JTxF8o2_a0MrCQ-RtNS-9" value="個人私鑰" style="text;html=1;align=center;verticalAlign=middle;resizable=0;points=[];autosize=1;fontColor=#000000;fontSize=16;" vertex="1" parent="4JTxF8o2_a0MrCQ-RtNS-7">
          <mxGeometry y="53" width="90" height="30" as="geometry" />
        </mxCell>
        <mxCell id="4JTxF8o2_a0MrCQ-RtNS-11" value="" style="group" vertex="1" connectable="0" parent="1">
          <mxGeometry x="1150" y="270" width="199.5" height="199.5" as="geometry" />
        </mxCell>
        <mxCell id="4JTxF8o2_a0MrCQ-RtNS-12" value="" style="group;fillColor=none;container=0;" vertex="1" connectable="0" parent="4JTxF8o2_a0MrCQ-RtNS-11">
          <mxGeometry width="199.5" height="199.5" as="geometry" />
        </mxCell>
        <mxCell id="4JTxF8o2_a0MrCQ-RtNS-13" value="" style="rounded=1;arcSize=10;strokeColor=#36393d;fillColor=#cce5ff;" vertex="1" parent="4JTxF8o2_a0MrCQ-RtNS-11">
          <mxGeometry width="199.5" height="199.5" as="geometry" />
        </mxCell>
        <mxCell id="4JTxF8o2_a0MrCQ-RtNS-21" value="" style="image;aspect=fixed;perimeter=ellipsePerimeter;html=1;align=center;shadow=0;dashed=0;fontColor=#4277BB;labelBackgroundColor=default;fontSize=12;spacingTop=3;image=img/lib/ibm/vpc/Key.svg;" vertex="1" parent="4JTxF8o2_a0MrCQ-RtNS-11">
          <mxGeometry x="30" y="20" width="60" height="60" as="geometry" />
        </mxCell>
        <mxCell id="4JTxF8o2_a0MrCQ-RtNS-22" value="" style="image;aspect=fixed;perimeter=ellipsePerimeter;html=1;align=center;shadow=0;dashed=0;fontColor=#4277BB;labelBackgroundColor=default;fontSize=12;spacingTop=3;image=img/lib/ibm/blockchain/key_management.svg;" vertex="1" parent="4JTxF8o2_a0MrCQ-RtNS-11">
          <mxGeometry x="110" y="20" width="60" height="60" as="geometry" />
        </mxCell>
        <mxCell id="4JTxF8o2_a0MrCQ-RtNS-23" value="CA公鑰" style="text;html=1;align=center;verticalAlign=middle;resizable=0;points=[];autosize=1;fontColor=#000000;fontSize=16;" vertex="1" parent="4JTxF8o2_a0MrCQ-RtNS-11">
          <mxGeometry x="20" y="80" width="80" height="30" as="geometry" />
        </mxCell>
        <mxCell id="4JTxF8o2_a0MrCQ-RtNS-30" value="CA私鑰" style="text;html=1;align=center;verticalAlign=middle;resizable=0;points=[];autosize=1;fontColor=#000000;fontSize=16;" vertex="1" parent="4JTxF8o2_a0MrCQ-RtNS-11">
          <mxGeometry x="100" y="80" width="80" height="30" as="geometry" />
        </mxCell>
        <mxCell id="4JTxF8o2_a0MrCQ-RtNS-33" value="" style="image;aspect=fixed;html=1;points=[];align=center;fontSize=12;image=img/lib/azure2/intune/Exchange_Access.svg;" vertex="1" parent="4JTxF8o2_a0MrCQ-RtNS-11">
          <mxGeometry x="72" y="120" width="56.00000000000001" height="68" as="geometry" />
        </mxCell>
        <mxCell id="4JTxF8o2_a0MrCQ-RtNS-50" value="&lt;font style=&quot;font-size: 20px;&quot;&gt;① 將個資用個人私鑰加密 (CSR)&lt;/font&gt;" style="text;html=1;align=center;verticalAlign=middle;resizable=0;points=[];autosize=1;strokeColor=none;fillColor=none;" vertex="1" parent="1">
          <mxGeometry x="867.5" y="740" width="310" height="40" as="geometry" />
        </mxCell>
        <mxCell id="4JTxF8o2_a0MrCQ-RtNS-51" value="&lt;span style=&quot;font-size: 20px;&quot;&gt;個人Server&lt;br&gt;&lt;/span&gt;" style="text;html=1;align=center;verticalAlign=middle;resizable=0;points=[];autosize=1;strokeColor=#B09500;fillColor=#e3c800;fontColor=#000000;" vertex="1" parent="1">
          <mxGeometry x="629.75" y="680" width="120" height="40" as="geometry" />
        </mxCell>
        <mxCell id="4JTxF8o2_a0MrCQ-RtNS-52" value="&lt;span style=&quot;font-size: 20px;&quot;&gt;CA機構&lt;br&gt;&lt;/span&gt;" style="text;html=1;align=center;verticalAlign=middle;resizable=0;points=[];autosize=1;strokeColor=#B09500;fillColor=#e3c800;fontColor=#000000;" vertex="1" parent="1">
          <mxGeometry x="1204.75" y="220" width="90" height="40" as="geometry" />
        </mxCell>
        <mxCell id="4JTxF8o2_a0MrCQ-RtNS-68" value="" style="group;fillColor=none;" vertex="1" connectable="0" parent="1">
          <mxGeometry x="1335" y="617" width="360" height="123" as="geometry" />
        </mxCell>
        <mxCell id="4JTxF8o2_a0MrCQ-RtNS-53" value="Table" style="shape=table;startSize=30;container=1;collapsible=0;childLayout=tableLayout;fixedRows=1;rowLines=0;fontStyle=0;strokeColor=default;fontSize=16;" vertex="1" parent="4JTxF8o2_a0MrCQ-RtNS-68">
          <mxGeometry width="360" height="120" as="geometry" />
        </mxCell>
        <mxCell id="4JTxF8o2_a0MrCQ-RtNS-54" value="" style="shape=tableRow;horizontal=0;startSize=0;swimlaneHead=0;swimlaneBody=0;top=0;left=0;bottom=0;right=0;collapsible=0;dropTarget=0;fillColor=none;points=[[0,0.5],[1,0.5]];portConstraint=eastwest;strokeColor=inherit;fontSize=16;" vertex="1" parent="4JTxF8o2_a0MrCQ-RtNS-53">
          <mxGeometry y="30" width="360" height="30" as="geometry" />
        </mxCell>
        <mxCell id="4JTxF8o2_a0MrCQ-RtNS-55" value="IP" style="shape=partialRectangle;html=1;whiteSpace=wrap;connectable=0;fillColor=none;top=0;left=0;bottom=0;right=0;overflow=hidden;pointerEvents=1;strokeColor=inherit;fontSize=16;" vertex="1" parent="4JTxF8o2_a0MrCQ-RtNS-54">
          <mxGeometry width="81" height="30" as="geometry">
            <mxRectangle width="81" height="30" as="alternateBounds" />
          </mxGeometry>
        </mxCell>
        <mxCell id="4JTxF8o2_a0MrCQ-RtNS-56" value="127.0.0.1" style="shape=partialRectangle;html=1;whiteSpace=wrap;connectable=0;fillColor=none;top=0;left=0;bottom=0;right=0;align=left;spacingLeft=6;overflow=hidden;strokeColor=inherit;fontSize=16;" vertex="1" parent="4JTxF8o2_a0MrCQ-RtNS-54">
          <mxGeometry x="81" width="279" height="30" as="geometry">
            <mxRectangle width="279" height="30" as="alternateBounds" />
          </mxGeometry>
        </mxCell>
        <mxCell id="4JTxF8o2_a0MrCQ-RtNS-57" value="" style="shape=tableRow;horizontal=0;startSize=0;swimlaneHead=0;swimlaneBody=0;top=0;left=0;bottom=0;right=0;collapsible=0;dropTarget=0;fillColor=none;points=[[0,0.5],[1,0.5]];portConstraint=eastwest;strokeColor=inherit;fontSize=16;" vertex="1" parent="4JTxF8o2_a0MrCQ-RtNS-53">
          <mxGeometry y="60" width="360" height="30" as="geometry" />
        </mxCell>
        <mxCell id="4JTxF8o2_a0MrCQ-RtNS-58" value="NAME" style="shape=partialRectangle;html=1;whiteSpace=wrap;connectable=0;fillColor=none;top=0;left=0;bottom=0;right=0;overflow=hidden;strokeColor=inherit;fontSize=16;" vertex="1" parent="4JTxF8o2_a0MrCQ-RtNS-57">
          <mxGeometry width="81" height="30" as="geometry">
            <mxRectangle width="81" height="30" as="alternateBounds" />
          </mxGeometry>
        </mxCell>
        <mxCell id="4JTxF8o2_a0MrCQ-RtNS-59" value="真．白食有限公司" style="shape=partialRectangle;html=1;whiteSpace=wrap;connectable=0;fillColor=none;top=0;left=0;bottom=0;right=0;align=left;spacingLeft=6;overflow=hidden;strokeColor=inherit;fontSize=16;" vertex="1" parent="4JTxF8o2_a0MrCQ-RtNS-57">
          <mxGeometry x="81" width="279" height="30" as="geometry">
            <mxRectangle width="279" height="30" as="alternateBounds" />
          </mxGeometry>
        </mxCell>
        <mxCell id="4JTxF8o2_a0MrCQ-RtNS-60" value="" style="shape=tableRow;horizontal=0;startSize=0;swimlaneHead=0;swimlaneBody=0;top=0;left=0;bottom=0;right=0;collapsible=0;dropTarget=0;fillColor=none;points=[[0,0.5],[1,0.5]];portConstraint=eastwest;strokeColor=inherit;fontSize=16;" vertex="1" parent="4JTxF8o2_a0MrCQ-RtNS-53">
          <mxGeometry y="90" width="360" height="30" as="geometry" />
        </mxCell>
        <mxCell id="4JTxF8o2_a0MrCQ-RtNS-61" value="HOST" style="shape=partialRectangle;html=1;whiteSpace=wrap;connectable=0;fillColor=none;top=0;left=0;bottom=0;right=0;overflow=hidden;strokeColor=inherit;fontSize=16;" vertex="1" parent="4JTxF8o2_a0MrCQ-RtNS-60">
          <mxGeometry width="81" height="30" as="geometry">
            <mxRectangle width="81" height="30" as="alternateBounds" />
          </mxGeometry>
        </mxCell>
        <mxCell id="4JTxF8o2_a0MrCQ-RtNS-62" value="987.com.tw" style="shape=partialRectangle;html=1;whiteSpace=wrap;connectable=0;fillColor=none;top=0;left=0;bottom=0;right=0;align=left;spacingLeft=6;overflow=hidden;strokeColor=inherit;fontSize=16;" vertex="1" parent="4JTxF8o2_a0MrCQ-RtNS-60">
          <mxGeometry x="81" width="279" height="30" as="geometry">
            <mxRectangle width="279" height="30" as="alternateBounds" />
          </mxGeometry>
        </mxCell>
        <mxCell id="4JTxF8o2_a0MrCQ-RtNS-63" value="" style="group" vertex="1" connectable="0" parent="4JTxF8o2_a0MrCQ-RtNS-68">
          <mxGeometry x="200" y="40" width="95" height="83" as="geometry" />
        </mxCell>
        <mxCell id="4JTxF8o2_a0MrCQ-RtNS-64" value="" style="sketch=0;pointerEvents=1;shadow=0;dashed=0;html=1;strokeColor=none;labelPosition=center;verticalLabelPosition=bottom;verticalAlign=top;outlineConnect=0;align=center;shape=mxgraph.office.security.key_permissions;fillColor=#DA4026;container=0;" vertex="1" parent="4JTxF8o2_a0MrCQ-RtNS-63">
          <mxGeometry x="32.5" width="25" height="53" as="geometry" />
        </mxCell>
        <mxCell id="4JTxF8o2_a0MrCQ-RtNS-65" value="&lt;font&gt;個人私鑰&lt;/font&gt;" style="text;html=1;align=center;verticalAlign=middle;resizable=0;points=[];autosize=1;fontColor=#000000;fontSize=16;" vertex="1" parent="4JTxF8o2_a0MrCQ-RtNS-63">
          <mxGeometry y="53" width="90" height="30" as="geometry" />
        </mxCell>
        <mxCell id="4JTxF8o2_a0MrCQ-RtNS-66" value="" style="image;aspect=fixed;perimeter=ellipsePerimeter;html=1;align=center;shadow=0;dashed=0;fontColor=#4277BB;labelBackgroundColor=default;fontSize=12;spacingTop=3;image=img/lib/ibm/vpc/Key.svg;" vertex="1" parent="4JTxF8o2_a0MrCQ-RtNS-68">
          <mxGeometry x="285" y="35" width="60" height="60" as="geometry" />
        </mxCell>
        <mxCell id="4JTxF8o2_a0MrCQ-RtNS-67" value="&lt;font color=&quot;#000000&quot;&gt;CA公鑰&lt;/font&gt;" style="text;html=1;align=center;verticalAlign=middle;resizable=0;points=[];autosize=1;fontColor=#FFFFFF;fontSize=16;" vertex="1" parent="4JTxF8o2_a0MrCQ-RtNS-68">
          <mxGeometry x="275" y="93" width="80" height="30" as="geometry" />
        </mxCell>
        <mxCell id="4JTxF8o2_a0MrCQ-RtNS-79" value="" style="group" vertex="1" connectable="0" parent="1">
          <mxGeometry x="879" y="617" width="287" height="123" as="geometry" />
        </mxCell>
        <mxCell id="4JTxF8o2_a0MrCQ-RtNS-35" value="Table" style="shape=table;startSize=30;container=1;collapsible=0;childLayout=tableLayout;fixedRows=1;rowLines=0;fontStyle=0;strokeColor=default;fontSize=16;" vertex="1" parent="4JTxF8o2_a0MrCQ-RtNS-79">
          <mxGeometry width="280" height="120" as="geometry" />
        </mxCell>
        <mxCell id="4JTxF8o2_a0MrCQ-RtNS-36" value="" style="shape=tableRow;horizontal=0;startSize=0;swimlaneHead=0;swimlaneBody=0;top=0;left=0;bottom=0;right=0;collapsible=0;dropTarget=0;fillColor=none;points=[[0,0.5],[1,0.5]];portConstraint=eastwest;strokeColor=inherit;fontSize=16;" vertex="1" parent="4JTxF8o2_a0MrCQ-RtNS-35">
          <mxGeometry y="30" width="280" height="30" as="geometry" />
        </mxCell>
        <mxCell id="4JTxF8o2_a0MrCQ-RtNS-37" value="IP" style="shape=partialRectangle;html=1;whiteSpace=wrap;connectable=0;fillColor=none;top=0;left=0;bottom=0;right=0;overflow=hidden;pointerEvents=1;strokeColor=inherit;fontSize=16;" vertex="1" parent="4JTxF8o2_a0MrCQ-RtNS-36">
          <mxGeometry width="63" height="30" as="geometry">
            <mxRectangle width="63" height="30" as="alternateBounds" />
          </mxGeometry>
        </mxCell>
        <mxCell id="4JTxF8o2_a0MrCQ-RtNS-38" value="127.0.0.1" style="shape=partialRectangle;html=1;whiteSpace=wrap;connectable=0;fillColor=none;top=0;left=0;bottom=0;right=0;align=left;spacingLeft=6;overflow=hidden;strokeColor=inherit;fontSize=16;" vertex="1" parent="4JTxF8o2_a0MrCQ-RtNS-36">
          <mxGeometry x="63" width="217" height="30" as="geometry">
            <mxRectangle width="217" height="30" as="alternateBounds" />
          </mxGeometry>
        </mxCell>
        <mxCell id="4JTxF8o2_a0MrCQ-RtNS-39" value="" style="shape=tableRow;horizontal=0;startSize=0;swimlaneHead=0;swimlaneBody=0;top=0;left=0;bottom=0;right=0;collapsible=0;dropTarget=0;fillColor=none;points=[[0,0.5],[1,0.5]];portConstraint=eastwest;strokeColor=inherit;fontSize=16;" vertex="1" parent="4JTxF8o2_a0MrCQ-RtNS-35">
          <mxGeometry y="60" width="280" height="30" as="geometry" />
        </mxCell>
        <mxCell id="4JTxF8o2_a0MrCQ-RtNS-40" value="NAME" style="shape=partialRectangle;html=1;whiteSpace=wrap;connectable=0;fillColor=none;top=0;left=0;bottom=0;right=0;overflow=hidden;strokeColor=inherit;fontSize=16;" vertex="1" parent="4JTxF8o2_a0MrCQ-RtNS-39">
          <mxGeometry width="63" height="30" as="geometry">
            <mxRectangle width="63" height="30" as="alternateBounds" />
          </mxGeometry>
        </mxCell>
        <mxCell id="4JTxF8o2_a0MrCQ-RtNS-41" value="真．白食有限公司" style="shape=partialRectangle;html=1;whiteSpace=wrap;connectable=0;fillColor=none;top=0;left=0;bottom=0;right=0;align=left;spacingLeft=6;overflow=hidden;strokeColor=inherit;fontSize=16;" vertex="1" parent="4JTxF8o2_a0MrCQ-RtNS-39">
          <mxGeometry x="63" width="217" height="30" as="geometry">
            <mxRectangle width="217" height="30" as="alternateBounds" />
          </mxGeometry>
        </mxCell>
        <mxCell id="4JTxF8o2_a0MrCQ-RtNS-42" value="" style="shape=tableRow;horizontal=0;startSize=0;swimlaneHead=0;swimlaneBody=0;top=0;left=0;bottom=0;right=0;collapsible=0;dropTarget=0;fillColor=none;points=[[0,0.5],[1,0.5]];portConstraint=eastwest;strokeColor=inherit;fontSize=16;" vertex="1" parent="4JTxF8o2_a0MrCQ-RtNS-35">
          <mxGeometry y="90" width="280" height="30" as="geometry" />
        </mxCell>
        <mxCell id="4JTxF8o2_a0MrCQ-RtNS-43" value="HOST" style="shape=partialRectangle;html=1;whiteSpace=wrap;connectable=0;fillColor=none;top=0;left=0;bottom=0;right=0;overflow=hidden;strokeColor=inherit;fontSize=16;" vertex="1" parent="4JTxF8o2_a0MrCQ-RtNS-42">
          <mxGeometry width="63" height="30" as="geometry">
            <mxRectangle width="63" height="30" as="alternateBounds" />
          </mxGeometry>
        </mxCell>
        <mxCell id="4JTxF8o2_a0MrCQ-RtNS-44" value="987.com.tw" style="shape=partialRectangle;html=1;whiteSpace=wrap;connectable=0;fillColor=none;top=0;left=0;bottom=0;right=0;align=left;spacingLeft=6;overflow=hidden;strokeColor=inherit;fontSize=16;" vertex="1" parent="4JTxF8o2_a0MrCQ-RtNS-42">
          <mxGeometry x="63" width="217" height="30" as="geometry">
            <mxRectangle width="217" height="30" as="alternateBounds" />
          </mxGeometry>
        </mxCell>
        <mxCell id="4JTxF8o2_a0MrCQ-RtNS-46" value="" style="group" vertex="1" connectable="0" parent="4JTxF8o2_a0MrCQ-RtNS-79">
          <mxGeometry x="192" y="40" width="95" height="83" as="geometry" />
        </mxCell>
        <mxCell id="4JTxF8o2_a0MrCQ-RtNS-47" value="" style="sketch=0;pointerEvents=1;shadow=0;dashed=0;html=1;strokeColor=none;labelPosition=center;verticalLabelPosition=bottom;verticalAlign=top;outlineConnect=0;align=center;shape=mxgraph.office.security.key_permissions;fillColor=#DA4026;container=0;" vertex="1" parent="4JTxF8o2_a0MrCQ-RtNS-46">
          <mxGeometry x="32.5" width="25" height="53" as="geometry" />
        </mxCell>
        <mxCell id="4JTxF8o2_a0MrCQ-RtNS-48" value="&lt;font&gt;個人私鑰&lt;/font&gt;" style="text;html=1;align=center;verticalAlign=middle;resizable=0;points=[];autosize=1;fontColor=#000000;fontSize=16;" vertex="1" parent="4JTxF8o2_a0MrCQ-RtNS-46">
          <mxGeometry y="53" width="90" height="30" as="geometry" />
        </mxCell>
        <mxCell id="4JTxF8o2_a0MrCQ-RtNS-80" style="edgeStyle=orthogonalEdgeStyle;rounded=0;orthogonalLoop=1;jettySize=auto;html=1;exitX=0.75;exitY=1;exitDx=0;exitDy=0;entryX=1;entryY=0.75;entryDx=0;entryDy=0;fillColor=#e51400;strokeColor=#B20000;shape=flexArrow;" edge="1" parent="1" source="4JTxF8o2_a0MrCQ-RtNS-13" target="4JTxF8o2_a0MrCQ-RtNS-2">
          <mxGeometry relative="1" as="geometry" />
        </mxCell>
        <mxCell id="4JTxF8o2_a0MrCQ-RtNS-81" value="&lt;font style=&quot;font-size: 20px;&quot;&gt;② 將CSR以CA公鑰加密 (證書)&lt;/font&gt;" style="text;html=1;align=center;verticalAlign=middle;resizable=0;points=[];autosize=1;strokeColor=none;fillColor=none;" vertex="1" parent="1">
          <mxGeometry x="1365" y="750" width="300" height="40" as="geometry" />
        </mxCell>
        <mxCell id="4JTxF8o2_a0MrCQ-RtNS-92" style="edgeStyle=orthogonalEdgeStyle;rounded=0;orthogonalLoop=1;jettySize=auto;html=1;exitX=1;exitY=0.25;exitDx=0;exitDy=0;entryX=0.25;entryY=1;entryDx=0;entryDy=0;fillColor=#e51400;strokeColor=#B20000;shape=flexArrow;" edge="1" parent="1" source="4JTxF8o2_a0MrCQ-RtNS-2" target="4JTxF8o2_a0MrCQ-RtNS-13">
          <mxGeometry relative="1" as="geometry">
            <mxPoint x="1210" y="640" as="targetPoint" />
          </mxGeometry>
        </mxCell>
        <mxCell id="4JTxF8o2_a0MrCQ-RtNS-93" value="&lt;font style=&quot;font-size: 20px;&quot;&gt;③ 再將證書放在Server上 (SSL)&lt;/font&gt;" style="text;html=1;align=center;verticalAlign=middle;resizable=0;points=[];autosize=1;strokeColor=none;fillColor=none;" vertex="1" parent="1">
          <mxGeometry x="867.5" y="899.5" width="300" height="40" as="geometry" />
        </mxCell>
        <mxCell id="NgXPHPPPkDfEfyyk93ER-49" style="edgeStyle=orthogonalEdgeStyle;rounded=0;orthogonalLoop=1;jettySize=auto;html=1;exitX=1;exitY=0.5;exitDx=0;exitDy=0;exitPerimeter=0;entryX=0;entryY=0.5;entryDx=0;entryDy=0;shape=flexArrow;fillColor=#60a917;strokeColor=#2D7600;" edge="1" parent="1" source="NgXPHPPPkDfEfyyk93ER-1" target="4JTxF8o2_a0MrCQ-RtNS-2">
          <mxGeometry relative="1" as="geometry" />
        </mxCell>
        <mxCell id="NgXPHPPPkDfEfyyk93ER-52" style="edgeStyle=orthogonalEdgeStyle;rounded=0;orthogonalLoop=1;jettySize=auto;html=1;exitX=0.5;exitY=0.07;exitDx=0;exitDy=0;exitPerimeter=0;entryX=0;entryY=0.75;entryDx=0;entryDy=0;shape=flexArrow;fillColor=#60a917;strokeColor=#2D7600;" edge="1" parent="1" source="NgXPHPPPkDfEfyyk93ER-1" target="4JTxF8o2_a0MrCQ-RtNS-13">
          <mxGeometry relative="1" as="geometry">
            <Array as="points">
              <mxPoint x="-17" y="420" />
            </Array>
          </mxGeometry>
        </mxCell>
        <mxCell id="NgXPHPPPkDfEfyyk93ER-86" style="edgeStyle=orthogonalEdgeStyle;rounded=0;orthogonalLoop=1;jettySize=auto;html=1;exitX=0;exitY=0.5;exitDx=0;exitDy=0;exitPerimeter=0;shape=flexArrow;fillColor=#0050ef;strokeColor=#001DBC;" edge="1" parent="1" source="NgXPHPPPkDfEfyyk93ER-1" target="NgXPHPPPkDfEfyyk93ER-74">
          <mxGeometry relative="1" as="geometry" />
        </mxCell>
        <mxCell id="NgXPHPPPkDfEfyyk93ER-1" value="" style="fontColor=#0066CC;verticalAlign=top;verticalLabelPosition=bottom;labelPosition=center;align=center;html=1;outlineConnect=0;fillColor=#CCCCCC;strokeColor=#6881B3;gradientColor=none;gradientDirection=north;strokeWidth=2;shape=mxgraph.networks.pc;" vertex="1" parent="1">
          <mxGeometry x="-110" y="774.75" width="185.71" height="130" as="geometry" />
        </mxCell>
        <mxCell id="NgXPHPPPkDfEfyyk93ER-16" value="Ⓐ 取得該Servier的SSL證書複本" style="text;html=1;align=center;verticalAlign=middle;resizable=0;points=[];autosize=1;strokeColor=none;fillColor=none;fontSize=20;" vertex="1" parent="1">
          <mxGeometry x="170" y="790" width="310" height="40" as="geometry" />
        </mxCell>
        <mxCell id="NgXPHPPPkDfEfyyk93ER-33" value="" style="group" vertex="1" connectable="0" parent="1">
          <mxGeometry x="150" y="667" width="360" height="123" as="geometry" />
        </mxCell>
        <mxCell id="NgXPHPPPkDfEfyyk93ER-34" value="Table" style="shape=table;startSize=30;container=1;collapsible=0;childLayout=tableLayout;fixedRows=1;rowLines=0;fontStyle=0;strokeColor=default;fontSize=16;" vertex="1" parent="NgXPHPPPkDfEfyyk93ER-33">
          <mxGeometry width="360" height="120" as="geometry" />
        </mxCell>
        <mxCell id="NgXPHPPPkDfEfyyk93ER-35" value="" style="shape=tableRow;horizontal=0;startSize=0;swimlaneHead=0;swimlaneBody=0;top=0;left=0;bottom=0;right=0;collapsible=0;dropTarget=0;fillColor=none;points=[[0,0.5],[1,0.5]];portConstraint=eastwest;strokeColor=inherit;fontSize=16;" vertex="1" parent="NgXPHPPPkDfEfyyk93ER-34">
          <mxGeometry y="30" width="360" height="30" as="geometry" />
        </mxCell>
        <mxCell id="NgXPHPPPkDfEfyyk93ER-36" value="IP" style="shape=partialRectangle;html=1;whiteSpace=wrap;connectable=0;fillColor=none;top=0;left=0;bottom=0;right=0;overflow=hidden;pointerEvents=1;strokeColor=inherit;fontSize=16;" vertex="1" parent="NgXPHPPPkDfEfyyk93ER-35">
          <mxGeometry width="81" height="30" as="geometry">
            <mxRectangle width="81" height="30" as="alternateBounds" />
          </mxGeometry>
        </mxCell>
        <mxCell id="NgXPHPPPkDfEfyyk93ER-37" value="127.0.0.1" style="shape=partialRectangle;html=1;whiteSpace=wrap;connectable=0;fillColor=none;top=0;left=0;bottom=0;right=0;align=left;spacingLeft=6;overflow=hidden;strokeColor=inherit;fontSize=16;" vertex="1" parent="NgXPHPPPkDfEfyyk93ER-35">
          <mxGeometry x="81" width="279" height="30" as="geometry">
            <mxRectangle width="279" height="30" as="alternateBounds" />
          </mxGeometry>
        </mxCell>
        <mxCell id="NgXPHPPPkDfEfyyk93ER-38" value="" style="shape=tableRow;horizontal=0;startSize=0;swimlaneHead=0;swimlaneBody=0;top=0;left=0;bottom=0;right=0;collapsible=0;dropTarget=0;fillColor=none;points=[[0,0.5],[1,0.5]];portConstraint=eastwest;strokeColor=inherit;fontSize=16;" vertex="1" parent="NgXPHPPPkDfEfyyk93ER-34">
          <mxGeometry y="60" width="360" height="30" as="geometry" />
        </mxCell>
        <mxCell id="NgXPHPPPkDfEfyyk93ER-39" value="NAME" style="shape=partialRectangle;html=1;whiteSpace=wrap;connectable=0;fillColor=none;top=0;left=0;bottom=0;right=0;overflow=hidden;strokeColor=inherit;fontSize=16;" vertex="1" parent="NgXPHPPPkDfEfyyk93ER-38">
          <mxGeometry width="81" height="30" as="geometry">
            <mxRectangle width="81" height="30" as="alternateBounds" />
          </mxGeometry>
        </mxCell>
        <mxCell id="NgXPHPPPkDfEfyyk93ER-40" value="真．白食有限公司" style="shape=partialRectangle;html=1;whiteSpace=wrap;connectable=0;fillColor=none;top=0;left=0;bottom=0;right=0;align=left;spacingLeft=6;overflow=hidden;strokeColor=inherit;fontSize=16;" vertex="1" parent="NgXPHPPPkDfEfyyk93ER-38">
          <mxGeometry x="81" width="279" height="30" as="geometry">
            <mxRectangle width="279" height="30" as="alternateBounds" />
          </mxGeometry>
        </mxCell>
        <mxCell id="NgXPHPPPkDfEfyyk93ER-41" value="" style="shape=tableRow;horizontal=0;startSize=0;swimlaneHead=0;swimlaneBody=0;top=0;left=0;bottom=0;right=0;collapsible=0;dropTarget=0;fillColor=none;points=[[0,0.5],[1,0.5]];portConstraint=eastwest;strokeColor=inherit;fontSize=16;" vertex="1" parent="NgXPHPPPkDfEfyyk93ER-34">
          <mxGeometry y="90" width="360" height="30" as="geometry" />
        </mxCell>
        <mxCell id="NgXPHPPPkDfEfyyk93ER-42" value="HOST" style="shape=partialRectangle;html=1;whiteSpace=wrap;connectable=0;fillColor=none;top=0;left=0;bottom=0;right=0;overflow=hidden;strokeColor=inherit;fontSize=16;" vertex="1" parent="NgXPHPPPkDfEfyyk93ER-41">
          <mxGeometry width="81" height="30" as="geometry">
            <mxRectangle width="81" height="30" as="alternateBounds" />
          </mxGeometry>
        </mxCell>
        <mxCell id="NgXPHPPPkDfEfyyk93ER-43" value="987.com.tw" style="shape=partialRectangle;html=1;whiteSpace=wrap;connectable=0;fillColor=none;top=0;left=0;bottom=0;right=0;align=left;spacingLeft=6;overflow=hidden;strokeColor=inherit;fontSize=16;" vertex="1" parent="NgXPHPPPkDfEfyyk93ER-41">
          <mxGeometry x="81" width="279" height="30" as="geometry">
            <mxRectangle width="279" height="30" as="alternateBounds" />
          </mxGeometry>
        </mxCell>
        <mxCell id="NgXPHPPPkDfEfyyk93ER-44" value="" style="group" vertex="1" connectable="0" parent="NgXPHPPPkDfEfyyk93ER-33">
          <mxGeometry x="200" y="40" width="95" height="83" as="geometry" />
        </mxCell>
        <mxCell id="NgXPHPPPkDfEfyyk93ER-45" value="" style="sketch=0;pointerEvents=1;shadow=0;dashed=0;html=1;strokeColor=none;labelPosition=center;verticalLabelPosition=bottom;verticalAlign=top;outlineConnect=0;align=center;shape=mxgraph.office.security.key_permissions;fillColor=#DA4026;container=0;" vertex="1" parent="NgXPHPPPkDfEfyyk93ER-44">
          <mxGeometry x="32.5" width="25" height="53" as="geometry" />
        </mxCell>
        <mxCell id="NgXPHPPPkDfEfyyk93ER-46" value="&lt;font&gt;個人私鑰&lt;/font&gt;" style="text;html=1;align=center;verticalAlign=middle;resizable=0;points=[];autosize=1;fontColor=#000000;fontSize=16;" vertex="1" parent="NgXPHPPPkDfEfyyk93ER-44">
          <mxGeometry y="53" width="90" height="30" as="geometry" />
        </mxCell>
        <mxCell id="NgXPHPPPkDfEfyyk93ER-47" value="" style="image;aspect=fixed;perimeter=ellipsePerimeter;html=1;align=center;shadow=0;dashed=0;fontColor=#4277BB;labelBackgroundColor=default;fontSize=12;spacingTop=3;image=img/lib/ibm/vpc/Key.svg;" vertex="1" parent="NgXPHPPPkDfEfyyk93ER-33">
          <mxGeometry x="285" y="35" width="60" height="60" as="geometry" />
        </mxCell>
        <mxCell id="NgXPHPPPkDfEfyyk93ER-48" value="&lt;font color=&quot;#000000&quot;&gt;CA公鑰&lt;/font&gt;" style="text;html=1;align=center;verticalAlign=middle;resizable=0;points=[];autosize=1;fontColor=#FFFFFF;fontSize=16;" vertex="1" parent="NgXPHPPPkDfEfyyk93ER-33">
          <mxGeometry x="275" y="93" width="80" height="30" as="geometry" />
        </mxCell>
        <mxCell id="NgXPHPPPkDfEfyyk93ER-50" value="987.com.tw" style="text;html=1;align=center;verticalAlign=middle;resizable=0;points=[];autosize=1;fontColor=#000000;fontSize=20;" vertex="1" parent="1">
          <mxGeometry x="-65" y="805" width="130" height="40" as="geometry" />
        </mxCell>
        <mxCell id="NgXPHPPPkDfEfyyk93ER-53" value="Ⓑ 跟核發證書的機構取CA私鑰來解開證書" style="text;html=1;align=center;verticalAlign=middle;resizable=0;points=[];autosize=1;strokeColor=none;fillColor=none;fontSize=20;" vertex="1" parent="1">
          <mxGeometry x="730" y="370" width="400" height="40" as="geometry" />
        </mxCell>
        <mxCell id="NgXPHPPPkDfEfyyk93ER-54" style="edgeStyle=orthogonalEdgeStyle;rounded=0;orthogonalLoop=1;jettySize=auto;html=1;exitX=0;exitY=0.25;exitDx=0;exitDy=0;entryX=0;entryY=0;entryDx=0;entryDy=0;entryPerimeter=0;fillColor=#60a917;strokeColor=#2D7600;shape=flexArrow;" edge="1" parent="1" source="4JTxF8o2_a0MrCQ-RtNS-13" target="NgXPHPPPkDfEfyyk93ER-1">
          <mxGeometry relative="1" as="geometry">
            <mxPoint x="-110" y="690" as="targetPoint" />
          </mxGeometry>
        </mxCell>
        <mxCell id="NgXPHPPPkDfEfyyk93ER-55" value="ⓒ 跟核發證書的機構取CA私鑰來解開證書" style="text;html=1;align=center;verticalAlign=middle;resizable=0;points=[];autosize=1;strokeColor=none;fillColor=none;fontSize=20;" vertex="1" parent="1">
          <mxGeometry y="270" width="400" height="40" as="geometry" />
        </mxCell>
        <mxCell id="NgXPHPPPkDfEfyyk93ER-56" value="" style="image;aspect=fixed;perimeter=ellipsePerimeter;html=1;align=center;shadow=0;dashed=0;fontColor=#4277BB;labelBackgroundColor=default;fontSize=12;spacingTop=3;image=img/lib/ibm/blockchain/key_management.svg;" vertex="1" parent="1">
          <mxGeometry x="-200" y="379.5" width="60" height="60" as="geometry" />
        </mxCell>
        <mxCell id="NgXPHPPPkDfEfyyk93ER-57" value="CA私鑰" style="text;html=1;align=center;verticalAlign=middle;resizable=0;points=[];autosize=1;fontColor=#000000;fontSize=16;" vertex="1" parent="1">
          <mxGeometry x="-210" y="439.5" width="80" height="30" as="geometry" />
        </mxCell>
        <mxCell id="NgXPHPPPkDfEfyyk93ER-58" value="" style="group" vertex="1" connectable="0" parent="1">
          <mxGeometry x="-490" y="480" width="360" height="123" as="geometry" />
        </mxCell>
        <mxCell id="NgXPHPPPkDfEfyyk93ER-59" value="Table" style="shape=table;startSize=30;container=1;collapsible=0;childLayout=tableLayout;fixedRows=1;rowLines=0;fontStyle=0;strokeColor=default;fontSize=16;" vertex="1" parent="NgXPHPPPkDfEfyyk93ER-58">
          <mxGeometry width="360" height="120" as="geometry" />
        </mxCell>
        <mxCell id="NgXPHPPPkDfEfyyk93ER-60" value="" style="shape=tableRow;horizontal=0;startSize=0;swimlaneHead=0;swimlaneBody=0;top=0;left=0;bottom=0;right=0;collapsible=0;dropTarget=0;fillColor=none;points=[[0,0.5],[1,0.5]];portConstraint=eastwest;strokeColor=inherit;fontSize=16;" vertex="1" parent="NgXPHPPPkDfEfyyk93ER-59">
          <mxGeometry y="30" width="360" height="30" as="geometry" />
        </mxCell>
        <mxCell id="NgXPHPPPkDfEfyyk93ER-61" value="IP" style="shape=partialRectangle;html=1;whiteSpace=wrap;connectable=0;fillColor=none;top=0;left=0;bottom=0;right=0;overflow=hidden;pointerEvents=1;strokeColor=inherit;fontSize=16;" vertex="1" parent="NgXPHPPPkDfEfyyk93ER-60">
          <mxGeometry width="81" height="30" as="geometry">
            <mxRectangle width="81" height="30" as="alternateBounds" />
          </mxGeometry>
        </mxCell>
        <mxCell id="NgXPHPPPkDfEfyyk93ER-62" value="127.0.0.1" style="shape=partialRectangle;html=1;whiteSpace=wrap;connectable=0;fillColor=none;top=0;left=0;bottom=0;right=0;align=left;spacingLeft=6;overflow=hidden;strokeColor=inherit;fontSize=16;" vertex="1" parent="NgXPHPPPkDfEfyyk93ER-60">
          <mxGeometry x="81" width="279" height="30" as="geometry">
            <mxRectangle width="279" height="30" as="alternateBounds" />
          </mxGeometry>
        </mxCell>
        <mxCell id="NgXPHPPPkDfEfyyk93ER-63" value="" style="shape=tableRow;horizontal=0;startSize=0;swimlaneHead=0;swimlaneBody=0;top=0;left=0;bottom=0;right=0;collapsible=0;dropTarget=0;fillColor=none;points=[[0,0.5],[1,0.5]];portConstraint=eastwest;strokeColor=inherit;fontSize=16;" vertex="1" parent="NgXPHPPPkDfEfyyk93ER-59">
          <mxGeometry y="60" width="360" height="30" as="geometry" />
        </mxCell>
        <mxCell id="NgXPHPPPkDfEfyyk93ER-64" value="NAME" style="shape=partialRectangle;html=1;whiteSpace=wrap;connectable=0;fillColor=none;top=0;left=0;bottom=0;right=0;overflow=hidden;strokeColor=inherit;fontSize=16;" vertex="1" parent="NgXPHPPPkDfEfyyk93ER-63">
          <mxGeometry width="81" height="30" as="geometry">
            <mxRectangle width="81" height="30" as="alternateBounds" />
          </mxGeometry>
        </mxCell>
        <mxCell id="NgXPHPPPkDfEfyyk93ER-65" value="真．白食有限公司" style="shape=partialRectangle;html=1;whiteSpace=wrap;connectable=0;fillColor=none;top=0;left=0;bottom=0;right=0;align=left;spacingLeft=6;overflow=hidden;strokeColor=inherit;fontSize=16;" vertex="1" parent="NgXPHPPPkDfEfyyk93ER-63">
          <mxGeometry x="81" width="279" height="30" as="geometry">
            <mxRectangle width="279" height="30" as="alternateBounds" />
          </mxGeometry>
        </mxCell>
        <mxCell id="NgXPHPPPkDfEfyyk93ER-66" value="" style="shape=tableRow;horizontal=0;startSize=0;swimlaneHead=0;swimlaneBody=0;top=0;left=0;bottom=0;right=0;collapsible=0;dropTarget=0;fillColor=none;points=[[0,0.5],[1,0.5]];portConstraint=eastwest;strokeColor=inherit;fontSize=16;" vertex="1" parent="NgXPHPPPkDfEfyyk93ER-59">
          <mxGeometry y="90" width="360" height="30" as="geometry" />
        </mxCell>
        <mxCell id="NgXPHPPPkDfEfyyk93ER-67" value="HOST" style="shape=partialRectangle;html=1;whiteSpace=wrap;connectable=0;fillColor=none;top=0;left=0;bottom=0;right=0;overflow=hidden;strokeColor=inherit;fontSize=16;" vertex="1" parent="NgXPHPPPkDfEfyyk93ER-66">
          <mxGeometry width="81" height="30" as="geometry">
            <mxRectangle width="81" height="30" as="alternateBounds" />
          </mxGeometry>
        </mxCell>
        <mxCell id="NgXPHPPPkDfEfyyk93ER-68" value="987.com.tw" style="shape=partialRectangle;html=1;whiteSpace=wrap;connectable=0;fillColor=none;top=0;left=0;bottom=0;right=0;align=left;spacingLeft=6;overflow=hidden;strokeColor=inherit;fontSize=16;" vertex="1" parent="NgXPHPPPkDfEfyyk93ER-66">
          <mxGeometry x="81" width="279" height="30" as="geometry">
            <mxRectangle width="279" height="30" as="alternateBounds" />
          </mxGeometry>
        </mxCell>
        <mxCell id="NgXPHPPPkDfEfyyk93ER-69" value="" style="group" vertex="1" connectable="0" parent="NgXPHPPPkDfEfyyk93ER-58">
          <mxGeometry x="200" y="40" width="95" height="83" as="geometry" />
        </mxCell>
        <mxCell id="NgXPHPPPkDfEfyyk93ER-70" value="" style="sketch=0;pointerEvents=1;shadow=0;dashed=0;html=1;strokeColor=none;labelPosition=center;verticalLabelPosition=bottom;verticalAlign=top;outlineConnect=0;align=center;shape=mxgraph.office.security.key_permissions;fillColor=#DA4026;container=0;" vertex="1" parent="NgXPHPPPkDfEfyyk93ER-69">
          <mxGeometry x="32.5" width="25" height="53" as="geometry" />
        </mxCell>
        <mxCell id="NgXPHPPPkDfEfyyk93ER-71" value="&lt;font&gt;個人私鑰&lt;/font&gt;" style="text;html=1;align=center;verticalAlign=middle;resizable=0;points=[];autosize=1;fontColor=#000000;fontSize=16;" vertex="1" parent="NgXPHPPPkDfEfyyk93ER-69">
          <mxGeometry y="53" width="90" height="30" as="geometry" />
        </mxCell>
        <mxCell id="NgXPHPPPkDfEfyyk93ER-72" value="" style="image;aspect=fixed;perimeter=ellipsePerimeter;html=1;align=center;shadow=0;dashed=0;fontColor=#4277BB;labelBackgroundColor=default;fontSize=12;spacingTop=3;image=img/lib/ibm/vpc/Key.svg;opacity=20;" vertex="1" parent="NgXPHPPPkDfEfyyk93ER-58">
          <mxGeometry x="285" y="35" width="60" height="60" as="geometry" />
        </mxCell>
        <mxCell id="NgXPHPPPkDfEfyyk93ER-73" value="CA公鑰" style="text;html=1;align=center;verticalAlign=middle;resizable=0;points=[];autosize=1;fontColor=#000000;fontSize=16;" vertex="1" parent="NgXPHPPPkDfEfyyk93ER-58">
          <mxGeometry x="275" y="93" width="80" height="30" as="geometry" />
        </mxCell>
        <mxCell id="NgXPHPPPkDfEfyyk93ER-74" value="Table" style="shape=table;startSize=30;container=1;collapsible=0;childLayout=tableLayout;fixedRows=1;rowLines=0;fontStyle=0;strokeColor=default;fontSize=16;" vertex="1" parent="1">
          <mxGeometry x="-450" y="990" width="280" height="120" as="geometry" />
        </mxCell>
        <mxCell id="NgXPHPPPkDfEfyyk93ER-75" value="" style="shape=tableRow;horizontal=0;startSize=0;swimlaneHead=0;swimlaneBody=0;top=0;left=0;bottom=0;right=0;collapsible=0;dropTarget=0;fillColor=none;points=[[0,0.5],[1,0.5]];portConstraint=eastwest;strokeColor=inherit;fontSize=16;" vertex="1" parent="NgXPHPPPkDfEfyyk93ER-74">
          <mxGeometry y="30" width="280" height="30" as="geometry" />
        </mxCell>
        <mxCell id="NgXPHPPPkDfEfyyk93ER-76" value="IP" style="shape=partialRectangle;html=1;whiteSpace=wrap;connectable=0;fillColor=none;top=0;left=0;bottom=0;right=0;overflow=hidden;pointerEvents=1;strokeColor=inherit;fontSize=16;" vertex="1" parent="NgXPHPPPkDfEfyyk93ER-75">
          <mxGeometry width="63" height="30" as="geometry">
            <mxRectangle width="63" height="30" as="alternateBounds" />
          </mxGeometry>
        </mxCell>
        <mxCell id="NgXPHPPPkDfEfyyk93ER-77" value="127.0.0.1" style="shape=partialRectangle;html=1;whiteSpace=wrap;connectable=0;fillColor=none;top=0;left=0;bottom=0;right=0;align=left;spacingLeft=6;overflow=hidden;strokeColor=inherit;fontSize=16;" vertex="1" parent="NgXPHPPPkDfEfyyk93ER-75">
          <mxGeometry x="63" width="217" height="30" as="geometry">
            <mxRectangle width="217" height="30" as="alternateBounds" />
          </mxGeometry>
        </mxCell>
        <mxCell id="NgXPHPPPkDfEfyyk93ER-78" value="" style="shape=tableRow;horizontal=0;startSize=0;swimlaneHead=0;swimlaneBody=0;top=0;left=0;bottom=0;right=0;collapsible=0;dropTarget=0;fillColor=none;points=[[0,0.5],[1,0.5]];portConstraint=eastwest;strokeColor=inherit;fontSize=16;" vertex="1" parent="NgXPHPPPkDfEfyyk93ER-74">
          <mxGeometry y="60" width="280" height="30" as="geometry" />
        </mxCell>
        <mxCell id="NgXPHPPPkDfEfyyk93ER-79" value="NAME" style="shape=partialRectangle;html=1;whiteSpace=wrap;connectable=0;fillColor=none;top=0;left=0;bottom=0;right=0;overflow=hidden;strokeColor=inherit;fontSize=16;" vertex="1" parent="NgXPHPPPkDfEfyyk93ER-78">
          <mxGeometry width="63" height="30" as="geometry">
            <mxRectangle width="63" height="30" as="alternateBounds" />
          </mxGeometry>
        </mxCell>
        <mxCell id="NgXPHPPPkDfEfyyk93ER-80" value="真．白食有限公司" style="shape=partialRectangle;html=1;whiteSpace=wrap;connectable=0;fillColor=none;top=0;left=0;bottom=0;right=0;align=left;spacingLeft=6;overflow=hidden;strokeColor=inherit;fontSize=16;" vertex="1" parent="NgXPHPPPkDfEfyyk93ER-78">
          <mxGeometry x="63" width="217" height="30" as="geometry">
            <mxRectangle width="217" height="30" as="alternateBounds" />
          </mxGeometry>
        </mxCell>
        <mxCell id="NgXPHPPPkDfEfyyk93ER-81" value="" style="shape=tableRow;horizontal=0;startSize=0;swimlaneHead=0;swimlaneBody=0;top=0;left=0;bottom=0;right=0;collapsible=0;dropTarget=0;fillColor=none;points=[[0,0.5],[1,0.5]];portConstraint=eastwest;strokeColor=inherit;fontSize=16;" vertex="1" parent="NgXPHPPPkDfEfyyk93ER-74">
          <mxGeometry y="90" width="280" height="30" as="geometry" />
        </mxCell>
        <mxCell id="NgXPHPPPkDfEfyyk93ER-82" value="HOST" style="shape=partialRectangle;html=1;whiteSpace=wrap;connectable=0;fillColor=none;top=0;left=0;bottom=0;right=0;overflow=hidden;strokeColor=inherit;fontSize=16;" vertex="1" parent="NgXPHPPPkDfEfyyk93ER-81">
          <mxGeometry width="63" height="30" as="geometry">
            <mxRectangle width="63" height="30" as="alternateBounds" />
          </mxGeometry>
        </mxCell>
        <mxCell id="NgXPHPPPkDfEfyyk93ER-83" value="987.com.tw" style="shape=partialRectangle;html=1;whiteSpace=wrap;connectable=0;fillColor=none;top=0;left=0;bottom=0;right=0;align=left;spacingLeft=6;overflow=hidden;strokeColor=inherit;fontSize=16;" vertex="1" parent="NgXPHPPPkDfEfyyk93ER-81">
          <mxGeometry x="63" width="217" height="30" as="geometry">
            <mxRectangle width="217" height="30" as="alternateBounds" />
          </mxGeometry>
        </mxCell>
        <mxCell id="NgXPHPPPkDfEfyyk93ER-85" value="ⓐ 查證對方個資是否正確" style="text;html=1;align=center;verticalAlign=middle;resizable=0;points=[];autosize=1;strokeColor=none;fillColor=none;fontSize=20;" vertex="1" parent="1">
          <mxGeometry x="-390" y="780" width="250" height="40" as="geometry" />
        </mxCell>
        <mxCell id="NgXPHPPPkDfEfyyk93ER-90" value="Ⓓ 此時取得個資 + 個人私鑰" style="text;html=1;align=center;verticalAlign=middle;resizable=0;points=[];autosize=1;strokeColor=none;fillColor=none;fontSize=20;" vertex="1" parent="1">
          <mxGeometry x="-445" y="620" width="270" height="40" as="geometry" />
        </mxCell>
        <mxCell id="NgXPHPPPkDfEfyyk93ER-94" value="" style="group" vertex="1" connectable="0" parent="1">
          <mxGeometry x="20" y="1330" width="360" height="139.5" as="geometry" />
        </mxCell>
        <mxCell id="NgXPHPPPkDfEfyyk93ER-95" value="" style="group;fillColor=none;container=0;" vertex="1" connectable="0" parent="NgXPHPPPkDfEfyyk93ER-94">
          <mxGeometry width="360" height="139.5" as="geometry" />
        </mxCell>
        <mxCell id="NgXPHPPPkDfEfyyk93ER-96" value="" style="rounded=1;arcSize=10;strokeColor=#36393d;fillColor=#cce5ff;" vertex="1" parent="NgXPHPPPkDfEfyyk93ER-94">
          <mxGeometry width="360" height="139.5" as="geometry" />
        </mxCell>
        <mxCell id="NgXPHPPPkDfEfyyk93ER-108" value="隨機的一串字" style="rounded=1;whiteSpace=wrap;html=1;fontSize=20;" vertex="1" parent="NgXPHPPPkDfEfyyk93ER-94">
          <mxGeometry x="175.25" y="40" width="154.75" height="60" as="geometry" />
        </mxCell>
        <mxCell id="NgXPHPPPkDfEfyyk93ER-111" value="" style="group" vertex="1" connectable="0" parent="NgXPHPPPkDfEfyyk93ER-94">
          <mxGeometry x="40" y="28.5" width="95" height="83" as="geometry" />
        </mxCell>
        <mxCell id="NgXPHPPPkDfEfyyk93ER-112" value="" style="sketch=0;pointerEvents=1;shadow=0;dashed=0;html=1;strokeColor=none;labelPosition=center;verticalLabelPosition=bottom;verticalAlign=top;outlineConnect=0;align=center;shape=mxgraph.office.security.key_permissions;fillColor=#DA4026;container=0;" vertex="1" parent="NgXPHPPPkDfEfyyk93ER-111">
          <mxGeometry x="32.5" width="25" height="53" as="geometry" />
        </mxCell>
        <mxCell id="NgXPHPPPkDfEfyyk93ER-113" value="個人私鑰" style="text;html=1;align=center;verticalAlign=middle;resizable=0;points=[];autosize=1;fontColor=#000000;fontSize=16;" vertex="1" parent="NgXPHPPPkDfEfyyk93ER-111">
          <mxGeometry y="53" width="90" height="30" as="geometry" />
        </mxCell>
        <mxCell id="NgXPHPPPkDfEfyyk93ER-114" style="edgeStyle=orthogonalEdgeStyle;rounded=0;orthogonalLoop=1;jettySize=auto;html=1;exitX=0;exitY=0.75;exitDx=0;exitDy=0;entryX=0.5;entryY=1;entryDx=0;entryDy=0;entryPerimeter=0;shape=flexArrow;fillColor=#0050ef;strokeColor=#001DBC;" edge="1" parent="1" source="4JTxF8o2_a0MrCQ-RtNS-2" target="NgXPHPPPkDfEfyyk93ER-1">
          <mxGeometry relative="1" as="geometry">
            <Array as="points">
              <mxPoint x="470" y="890" />
              <mxPoint x="470" y="990" />
              <mxPoint x="-17" y="990" />
            </Array>
          </mxGeometry>
        </mxCell>
        <mxCell id="NgXPHPPPkDfEfyyk93ER-115" style="edgeStyle=orthogonalEdgeStyle;rounded=0;orthogonalLoop=1;jettySize=auto;html=1;entryX=0.506;entryY=1.156;entryDx=0;entryDy=0;entryPerimeter=0;startArrow=block;startFill=1;endArrow=none;endFill=0;shape=flexArrow;fillColor=#0050ef;strokeColor=#001DBC;exitX=0.5;exitY=1;exitDx=0;exitDy=0;" edge="1" parent="1" source="4JTxF8o2_a0MrCQ-RtNS-2" target="NgXPHPPPkDfEfyyk93ER-81">
          <mxGeometry relative="1" as="geometry">
            <mxPoint x="701" y="980" as="sourcePoint" />
            <Array as="points">
              <mxPoint x="690" y="1310" />
              <mxPoint x="-308" y="1310" />
            </Array>
          </mxGeometry>
        </mxCell>
        <mxCell id="NgXPHPPPkDfEfyyk93ER-118" value="ⓑ 將隨機的一串字加密給Server去解" style="text;html=1;align=center;verticalAlign=middle;resizable=0;points=[];autosize=1;strokeColor=none;fillColor=none;fontSize=20;" vertex="1" parent="1">
          <mxGeometry x="25" y="1260" width="350" height="40" as="geometry" />
        </mxCell>
        <mxCell id="NgXPHPPPkDfEfyyk93ER-120" value="© 雙方相互信任協商，產生對稱密鑰，開始傳輸" style="text;html=1;align=center;verticalAlign=middle;resizable=0;points=[];autosize=1;strokeColor=none;fillColor=none;fontSize=20;" vertex="1" parent="1">
          <mxGeometry x="10" y="1010" width="440" height="40" as="geometry" />
        </mxCell>
        <mxCell id="NgXPHPPPkDfEfyyk93ER-121" value="" style="group" vertex="1" connectable="0" parent="1">
          <mxGeometry x="580" y="1217" width="95" height="83" as="geometry" />
        </mxCell>
        <mxCell id="NgXPHPPPkDfEfyyk93ER-122" value="" style="sketch=0;pointerEvents=1;shadow=0;dashed=0;html=1;strokeColor=none;labelPosition=center;verticalLabelPosition=bottom;verticalAlign=top;outlineConnect=0;align=center;shape=mxgraph.office.security.key_permissions;fillColor=#7FBA42;" vertex="1" parent="NgXPHPPPkDfEfyyk93ER-121">
          <mxGeometry x="32.5" width="25" height="53" as="geometry" />
        </mxCell>
        <mxCell id="NgXPHPPPkDfEfyyk93ER-123" value="個人公鑰" style="text;html=1;align=center;verticalAlign=middle;resizable=0;points=[];autosize=1;fontColor=#000000;fontSize=16;" vertex="1" parent="NgXPHPPPkDfEfyyk93ER-121">
          <mxGeometry y="53" width="90" height="30" as="geometry" />
        </mxCell>
        <mxCell id="NgXPHPPPkDfEfyyk93ER-127" value="" style="group" vertex="1" connectable="0" parent="1">
          <mxGeometry x="430" y="999.5" width="100" height="101" as="geometry" />
        </mxCell>
        <mxCell id="NgXPHPPPkDfEfyyk93ER-124" value="" style="image;sketch=0;aspect=fixed;html=1;points=[];align=center;fontSize=12;image=img/lib/mscae/Key.svg;" vertex="1" parent="NgXPHPPPkDfEfyyk93ER-127">
          <mxGeometry x="34.5" width="31" height="50" as="geometry" />
        </mxCell>
        <mxCell id="NgXPHPPPkDfEfyyk93ER-126" value="對稱密鑰" style="text;html=1;align=center;verticalAlign=middle;resizable=0;points=[];autosize=1;strokeColor=none;fillColor=none;fontSize=20;" vertex="1" parent="NgXPHPPPkDfEfyyk93ER-127">
          <mxGeometry y="61" width="100" height="40" as="geometry" />
        </mxCell>
        <mxCell id="NgXPHPPPkDfEfyyk93ER-129" value="" style="group" vertex="1" connectable="0" parent="1">
          <mxGeometry x="-75" y="1010" width="100" height="101" as="geometry" />
        </mxCell>
        <mxCell id="NgXPHPPPkDfEfyyk93ER-130" value="" style="image;sketch=0;aspect=fixed;html=1;points=[];align=center;fontSize=12;image=img/lib/mscae/Key.svg;" vertex="1" parent="NgXPHPPPkDfEfyyk93ER-129">
          <mxGeometry x="34.5" width="31" height="50" as="geometry" />
        </mxCell>
        <mxCell id="NgXPHPPPkDfEfyyk93ER-131" value="對稱密鑰" style="text;html=1;align=center;verticalAlign=middle;resizable=0;points=[];autosize=1;strokeColor=none;fillColor=none;fontSize=20;" vertex="1" parent="NgXPHPPPkDfEfyyk93ER-129">
          <mxGeometry y="61" width="100" height="40" as="geometry" />
        </mxCell>
      </root>
    </mxGraphModel>
  </diagram>
</mxfile>
